<svg width="10" height="14" viewBox="0 0 10 14" fill="none" xmlns="http://www.w3.org/2000/svg">
<path fill-rule="evenodd" clip-rule="evenodd" d="M4.56005 0.97757C2.06383 0.97757 0.0449219 2.99648 0.0449219 5.4927C0.0449219 8.87905 4.56005 13.8779 4.56005 13.8779C4.56005 13.8779 9.07518 8.87905 9.07518 5.4927C9.07518 2.99648 7.05627 0.97757 4.56005 0.97757ZM1.33503 5.49289C1.33503 3.71264 2.77987 2.2678 4.56012 2.2678C6.34037 2.2678 7.78521 3.71264 7.78521 5.49289C7.78521 7.35054 5.92756 10.1306 4.56012 11.8657C3.21848 10.1435 1.33503 7.33119 1.33503 5.49289ZM2.94728 5.49281C2.94728 4.60223 3.66924 3.88027 4.55982 3.88027C5.13593 3.88027 5.66828 4.18762 5.95633 4.68654C6.24438 5.18546 6.24438 5.80016 5.95633 6.29909C5.66828 6.79801 5.13593 7.10536 4.55982 7.10536C3.66924 7.10536 2.94728 6.3834 2.94728 5.49281Z" fill="#FF7F00"/>
</svg>
