<svg width="44" height="44" viewBox="0 0 44 44" fill="none" xmlns="http://www.w3.org/2000/svg">
<g clip-path="url(#clip0)">
<path d="M43.9868 11.6863L43.7898 10.2684C43.7404 9.91254 43.5545 9.598 43.2661 9.38349C42.9781 9.16865 42.6236 9.08002 42.2681 9.13474L19.2003 12.6629C19.2812 11.9539 19.4839 11.5209 19.7424 10.972C19.7861 10.8793 19.8311 10.7796 19.8764 10.6736L41.0327 4.31888C41.3768 4.21549 41.6588 3.98353 41.8273 3.66596C41.9952 3.34839 42.0284 2.9845 41.9203 2.64176L41.49 1.2765C41.3819 0.933752 41.1462 0.654791 40.8263 0.490973C40.5064 0.326819 40.1422 0.298956 39.8008 0.411749L33.4958 2.49406C33.1584 2.60551 32.9751 2.9694 33.0866 3.3071C33.198 3.64448 33.5616 3.82776 33.8996 3.71631L40.2046 1.63401C40.2093 1.63233 40.2231 1.62797 40.2395 1.63669C40.2566 1.64509 40.2607 1.65885 40.262 1.66321L40.6927 3.02881C40.694 3.03318 40.6984 3.04694 40.6893 3.06373C40.6806 3.08051 40.6668 3.08454 40.6625 3.08588L20.3896 9.17502C20.3984 9.14246 20.4058 9.10923 20.4142 9.07667C20.4215 9.04679 20.4289 9.01725 20.436 8.98737C20.4487 8.93433 20.4611 8.88129 20.4732 8.82792C20.4806 8.79435 20.488 8.76078 20.4954 8.72687C20.5061 8.67652 20.5165 8.62617 20.5263 8.57581C20.5343 8.5362 20.542 8.49625 20.5494 8.45597C20.5578 8.41032 20.5662 8.365 20.5743 8.31934C20.5823 8.27268 20.5901 8.22535 20.5974 8.17802C20.6011 8.15385 20.6058 8.12968 20.6095 8.10584L31.0328 4.66331C31.3702 4.55186 31.5534 4.18763 31.442 3.85026C31.3305 3.51255 30.9667 3.32926 30.629 3.44071L20.5437 6.7718C20.4736 6.65027 20.3809 6.54084 20.2671 6.45087C19.971 6.21757 19.5806 6.14841 19.2228 6.26691L18.1627 6.61704C17.7336 6.75837 17.4335 7.14039 17.3979 7.59022C17.3916 7.66978 17.3835 7.74531 17.3745 7.81849L15.9568 8.28678C15.9001 8.18809 15.8289 8.09711 15.7426 8.01823C15.4446 7.74531 15.0209 7.65467 14.6369 7.78156L13.4569 8.1713C13.138 8.27637 12.8856 8.5174 12.764 8.83127C12.6848 9.03538 12.5922 9.23444 12.5012 9.4278L10.9872 9.92799C10.95 9.8632 10.9063 9.80143 10.8553 9.74403C10.5582 9.40867 10.0913 9.28278 9.66593 9.4231L8.36982 9.85111C8.04084 9.95988 7.78538 10.208 7.66889 10.5316C7.60343 10.7122 7.54704 10.8955 7.49601 11.0808L6.04817 11.5591C5.98774 11.4544 5.90919 11.3584 5.81453 11.2751C5.51341 11.0113 5.10655 10.929 4.72654 11.0546L3.66441 11.4054C3.24614 11.5437 2.9467 11.917 2.90138 12.3564C2.89299 12.4383 2.8856 12.5216 2.87889 12.6058L1.45958 13.0748C0.771074 13.302 0.388384 14.0496 0.606249 14.7412L0.706621 15.0591C0.823107 15.429 1.08998 15.7123 1.41896 15.8651C1.26387 16.1188 1.1917 16.4253 1.23534 16.7405L1.28133 17.0709C1.37364 17.7339 1.94835 18.2199 2.60228 18.2199C2.65666 18.2199 2.71138 18.2166 2.76677 18.2099L4.07731 18.0457C4.24113 18.4895 4.34385 18.9789 4.34385 19.7527C4.34385 20.9464 4.10048 21.4641 3.76311 22.1808C3.55565 22.6219 3.32637 23.1103 3.14879 23.7404H1.01613C0.729448 23.7404 0.454852 23.8623 0.2625 24.0744C0.0704831 24.2869 -0.0235109 24.5723 0.00502305 24.8576C0.394763 28.759 2.09941 35.959 9.12681 40.509V41.6104C9.12681 42.694 10.0087 43.5759 11.0926 43.5759H27.8722C28.9559 43.5759 29.8377 42.694 29.8377 41.6104V40.5043C36.8587 35.9543 38.5631 28.7574 38.9528 24.8573C38.9813 24.5723 38.8873 24.2869 38.695 24.0744C38.503 23.8623 38.2284 23.7404 37.942 23.7404H19.7136C19.7233 23.7196 19.7324 23.6998 19.7424 23.6783C20.1493 22.8129 20.6562 21.736 20.6562 19.7527C20.6562 17.9504 20.2376 16.8966 19.8559 16.0698L42.8327 13.1923C43.1892 13.1476 43.5061 12.966 43.7247 12.6807C43.9435 12.3957 44.0365 12.0425 43.9868 11.6863ZM1.93425 14.672L1.83421 14.3541C1.82683 14.3303 1.83992 14.3051 1.86308 14.2974L2.86412 13.9667C2.8658 13.9996 2.86815 14.0312 2.87016 14.0637C2.87151 14.0835 2.87251 14.1033 2.87386 14.1231C2.87721 14.1701 2.88057 14.2168 2.8846 14.2635C2.8846 14.2661 2.88493 14.2685 2.88527 14.2712C2.88963 14.3239 2.89366 14.3769 2.89903 14.429L1.99065 14.7019C1.96681 14.7089 1.94197 14.6955 1.93425 14.672ZM2.60698 16.9326C2.58247 16.9352 2.55965 16.9181 2.55629 16.8936L2.51064 16.5633C2.50694 16.5388 2.52406 16.516 2.54857 16.5123L3.35524 16.3891C3.35792 16.3965 3.36095 16.4035 3.36397 16.4112C3.38713 16.4723 3.41096 16.5317 3.4348 16.5902C3.43883 16.5999 3.44252 16.61 3.44688 16.6197C3.4734 16.6848 3.50059 16.7483 3.52779 16.8104C3.52846 16.8124 3.52946 16.8147 3.53047 16.8167L2.60698 16.9326ZM17.5524 11.0915C17.5527 11.0905 17.553 11.0895 17.5534 11.0885C17.6202 10.8911 17.6937 10.7071 17.7699 10.5312C17.7699 10.5309 17.7702 10.5306 17.7702 10.5299C17.8464 10.3543 17.9253 10.1868 18.0029 10.022C18.0109 10.0045 18.0193 9.98673 18.0274 9.96928C18.0398 9.94276 18.0525 9.9159 18.065 9.88904C18.0744 9.86924 18.0834 9.84943 18.0928 9.82929C18.116 9.77894 18.1395 9.72825 18.1623 9.67689C18.1653 9.67017 18.1684 9.66312 18.1717 9.65607C18.1922 9.60975 18.2127 9.56242 18.2332 9.51475C18.2392 9.50098 18.2449 9.48688 18.2509 9.47278C18.2731 9.41975 18.2949 9.36603 18.3164 9.31098C18.3214 9.29856 18.3258 9.2858 18.3308 9.27338C18.348 9.2284 18.3647 9.18275 18.3812 9.13642C18.3872 9.11863 18.3936 9.10084 18.4 9.08271C18.4188 9.02799 18.4369 8.97227 18.4544 8.91486C18.4608 8.89439 18.4668 8.87324 18.4728 8.85209C18.4856 8.80845 18.498 8.7638 18.5101 8.71882C18.5158 8.69666 18.5218 8.67451 18.5276 8.65201C18.5427 8.59125 18.5571 8.52882 18.5705 8.4647C18.5725 8.4553 18.5749 8.44691 18.5769 8.43717C18.5779 8.43314 18.5779 8.42911 18.5789 8.42475C18.6179 8.23441 18.6494 8.02964 18.6712 7.80472L19.3816 7.57007C19.3712 7.66004 19.3601 7.75001 19.347 7.83964C19.345 7.85441 19.3426 7.86851 19.3406 7.88294C19.3289 7.96116 19.3164 8.0387 19.3027 8.11658C19.299 8.1384 19.2953 8.16022 19.2913 8.18171C19.2748 8.27134 19.2577 8.36097 19.2389 8.44993C19.2379 8.45463 19.2365 8.45933 19.2355 8.46403C19.2177 8.54694 19.1986 8.62919 19.1785 8.71143C19.1721 8.73728 19.1657 8.76279 19.1593 8.78864C19.1389 8.86954 19.1177 8.95011 19.0952 9.03034C19.0925 9.03974 19.0898 9.04948 19.0872 9.05888C19.0633 9.14146 19.0385 9.2237 19.0126 9.30595C19.0076 9.32206 19.0022 9.33884 18.9972 9.35496C18.969 9.44257 18.9395 9.52952 18.9089 9.61613C18.9069 9.62217 18.9049 9.62788 18.9025 9.63358C18.8696 9.7259 18.8354 9.81788 18.7991 9.90885C18.7988 9.90986 18.7988 9.91053 18.7985 9.91154C18.7233 10.1019 18.6484 10.2734 18.5776 10.4238C18.216 11.1922 17.8746 11.918 17.8746 13.3991C17.8746 13.4061 17.875 13.4121 17.875 13.4189V13.4199C17.875 13.4944 17.8763 13.5669 17.8783 13.6381C17.8793 13.6847 17.8817 13.7294 17.8834 13.7747C17.8847 13.8012 17.8857 13.8281 17.8871 13.8543C17.8897 13.9063 17.8931 13.9573 17.8968 14.0077C17.8978 14.0194 17.8988 14.0312 17.8995 14.0429C17.9364 14.5132 18.0136 14.8973 18.1147 15.2343C18.1157 15.2383 18.117 15.2423 18.1183 15.2464C18.1533 15.3622 18.1909 15.473 18.2308 15.5794C18.2315 15.5807 18.2321 15.5824 18.2325 15.5837C18.3372 15.8627 18.4561 16.1168 18.5776 16.3753C18.9666 17.2021 19.3688 18.0575 19.3688 19.7527C19.3688 21.4483 18.9666 22.3033 18.5776 23.1305C18.4856 23.3265 18.3913 23.5263 18.304 23.7404H17.5728C17.7028 23.3668 17.8545 23.0445 18.0029 22.7286C18.3644 21.9602 18.7058 21.2341 18.7058 19.7527C18.7058 18.2716 18.3644 17.5455 18.0029 16.7768C17.8317 16.4132 17.6581 16.0436 17.5175 15.6002C17.5171 15.5989 17.5168 15.5978 17.5164 15.5968C17.3355 15.0245 17.2372 14.4031 17.2163 13.6968C17.2163 13.6961 17.216 13.6951 17.216 13.6941C17.2133 13.5988 17.212 13.5008 17.212 13.3994C17.2116 12.389 17.3546 11.6769 17.5524 11.0915ZM15.3845 23.6783C15.7913 22.8129 16.2979 21.736 16.2979 19.7527C16.2979 18.3042 16.0276 17.3394 15.7235 16.5871L16.4704 16.4938C16.5913 16.8003 16.7188 17.0719 16.8377 17.325C17.175 18.0414 17.4184 18.559 17.4184 19.7527C17.4184 20.9464 17.175 21.4641 16.8377 22.1808C16.6302 22.6219 16.4009 23.1103 16.2237 23.7404H15.3556C15.3653 23.7193 15.3744 23.6995 15.3845 23.6783ZM15.171 15.3588C15.1666 15.3484 15.1619 15.338 15.1575 15.3273C15.1454 15.2984 15.1334 15.2692 15.1216 15.2397C15.1109 15.2131 15.1005 15.1866 15.0904 15.1601C15.0733 15.1155 15.0565 15.0701 15.0407 15.0241C15.0367 15.0131 15.033 15.0017 15.0293 14.9906C14.9904 14.8738 14.9548 14.7516 14.9246 14.6193L15.977 14.4585C15.978 14.4662 15.9793 14.4736 15.98 14.4813C15.9931 14.6028 16.0082 14.7203 16.0253 14.8338C16.027 14.8459 16.0287 14.858 16.0307 14.8701C16.0491 14.9892 16.0696 15.104 16.0921 15.2148C16.0938 15.2242 16.0951 15.234 16.0968 15.243L15.171 15.3588ZM15.9259 9.65272L16.9058 9.32911C16.9021 9.33649 16.8988 9.34354 16.8954 9.35093C16.881 9.38248 16.8662 9.41404 16.8511 9.44559C16.8467 9.45499 16.8424 9.46439 16.8377 9.47413C16.7444 9.67219 16.646 9.882 16.5497 10.1109C16.5473 10.116 16.5453 10.121 16.5429 10.1264C16.5137 10.1969 16.4842 10.269 16.4553 10.3432C16.4533 10.3486 16.4513 10.3536 16.4493 10.359L15.5426 10.6313C15.6745 10.3409 15.8081 10.0223 15.9259 9.65272ZM14.9283 12.16L16.0478 11.8236C15.9813 12.2177 15.9377 12.6605 15.9269 13.1637L14.8044 13.3353C14.8084 12.8515 14.8527 12.4796 14.9283 12.16ZM12.9107 12.3665C12.9111 12.3648 12.9114 12.3634 12.9117 12.3621C12.9893 11.7139 13.1373 11.2154 13.3065 10.7853C13.3085 10.7803 13.3102 10.7756 13.3122 10.7706C13.3408 10.6987 13.37 10.6286 13.3992 10.5601C13.4042 10.5487 13.4089 10.5376 13.4139 10.5262C13.4237 10.5034 13.4338 10.4809 13.4435 10.4584C13.4485 10.4476 13.4532 10.4362 13.4583 10.4255C13.472 10.3943 13.4861 10.3634 13.4999 10.3328C13.5032 10.3258 13.5066 10.3187 13.51 10.3117C13.5217 10.2858 13.5335 10.26 13.5452 10.2345C13.5784 10.1633 13.6113 10.0925 13.6446 10.022C13.7372 9.82526 13.8413 9.60438 13.9359 9.36872L14.7456 9.10117C14.5986 9.60975 14.4066 10.0257 14.2327 10.3953C14.2283 10.405 14.2236 10.4144 14.2193 10.4241C14.2132 10.4362 14.2079 10.4483 14.2022 10.4607C14.1884 10.4893 14.175 10.5181 14.1615 10.5473C14.1501 10.5715 14.1387 10.596 14.1273 10.6205C14.1192 10.638 14.1112 10.6554 14.1031 10.6732C14.088 10.7058 14.0732 10.7387 14.0585 10.7716C14.0551 10.7786 14.0518 10.786 14.0487 10.7934C13.7574 11.4443 13.5163 12.1553 13.5163 13.3991C13.5163 13.6683 13.5277 13.9117 13.5486 14.1359V14.1399C13.5489 14.1416 13.5489 14.1433 13.5492 14.1446C13.5522 14.1765 13.5559 14.2064 13.5593 14.2373C13.563 14.2722 13.5667 14.3074 13.5707 14.3413C13.5764 14.3857 13.5825 14.4286 13.5888 14.4713C13.5909 14.4864 13.5932 14.5018 13.5956 14.5169C13.6707 15.005 13.7936 15.3931 13.9376 15.7466C13.9427 15.7586 13.9474 15.7711 13.9524 15.7828C13.9584 15.7979 13.9648 15.8124 13.9712 15.8271C13.986 15.863 14.0011 15.8983 14.0165 15.9332C14.0195 15.9399 14.0222 15.9466 14.0252 15.9533C14.083 16.0846 14.1414 16.2091 14.1981 16.33C14.1981 16.3303 14.1985 16.3307 14.1985 16.3307C14.2055 16.3454 14.2122 16.3602 14.2193 16.3746C14.6083 17.2018 15.0105 18.0568 15.0105 19.7524C15.0105 21.4483 14.6083 22.3033 14.2193 23.1301C14.127 23.3262 14.033 23.5259 13.9453 23.7401H13.2142C13.3445 23.3665 13.4959 23.0442 13.6442 22.7283C14.0058 21.9599 14.3475 21.2341 14.3475 19.7524C14.3475 18.271 14.0061 17.5452 13.6446 16.7765C13.5378 16.5499 13.4301 16.3206 13.33 16.0729C13.33 16.0725 13.33 16.0722 13.3297 16.0718C13.0964 15.4941 12.9631 14.9506 12.8976 14.3101C12.8973 14.3081 12.897 14.3061 12.8966 14.3041C12.8688 14.0305 12.8533 13.7311 12.8533 13.3991C12.8533 13.015 12.8741 12.674 12.9107 12.3665ZM12.4797 17.325C12.8167 18.0414 13.0601 18.559 13.0601 19.7527C13.0601 20.9464 12.8167 21.4641 12.4797 22.1808C12.2723 22.6219 12.0426 23.1107 11.8654 23.7404H10.9973C11.007 23.7193 11.0164 23.6995 11.0262 23.6783C11.4334 22.8129 11.9399 21.7357 11.9399 19.7527C11.9399 18.6181 11.7741 17.7805 11.5559 17.1091L12.334 17.0118C12.383 17.1195 12.432 17.2239 12.4797 17.325ZM10.8929 15.5401C10.8922 15.5391 10.8919 15.5381 10.8912 15.5371C10.8486 15.4428 10.808 15.3494 10.7697 15.2548L11.7127 15.1108C11.7147 15.1215 11.7174 15.1319 11.7194 15.143C11.7375 15.2376 11.757 15.33 11.7774 15.4193C11.7821 15.4394 11.7872 15.4595 11.7919 15.48C11.814 15.573 11.8372 15.663 11.8617 15.7502C11.8637 15.7576 11.8654 15.7654 11.8674 15.7727L11.0487 15.8751C11.0413 15.859 11.0335 15.8429 11.0262 15.8271C11.0248 15.8244 11.0238 15.8218 11.0225 15.8191C10.9778 15.7241 10.9342 15.6314 10.8929 15.5401ZM10.8633 11.3248L11.8778 10.9898C11.8533 11.0737 11.8305 11.1617 11.8083 11.251C11.8066 11.2573 11.805 11.2637 11.8033 11.2701C11.7741 11.3889 11.7469 11.5125 11.7221 11.6417C11.7207 11.6491 11.7194 11.6568 11.7177 11.6642C11.71 11.7051 11.7022 11.7451 11.6949 11.7871L10.58 12.1217C10.6505 11.8361 10.7465 11.587 10.8633 11.3248ZM11.5686 13.1691C11.5673 13.2446 11.5663 13.3208 11.5663 13.3994C11.5663 13.5478 11.5693 13.6908 11.5747 13.8294L10.4699 13.9983C10.4568 13.8479 10.4494 13.6837 10.4471 13.5058L11.5686 13.1691ZM9.86567 10.4147L9.87675 10.4201C9.87507 10.4228 9.87305 10.4258 9.87138 10.4285L9.86164 10.4241C9.86265 10.4208 9.86399 10.4178 9.86567 10.4147ZM8.49772 13.1819C8.49873 13.1386 8.50041 13.0969 8.50175 13.055C8.50276 13.0291 8.50343 13.0026 8.50443 12.9771C8.50678 12.9264 8.50947 12.8774 8.51249 12.8287C8.5135 12.8129 8.51417 12.7972 8.51518 12.7817C8.51853 12.73 8.52256 12.6797 8.52659 12.6303C8.5276 12.6182 8.5286 12.6065 8.52961 12.5947C8.53431 12.5437 8.53901 12.494 8.54438 12.4453C8.54539 12.4359 8.5464 12.4262 8.54774 12.4168C8.56318 12.2792 8.58164 12.1509 8.60178 12.0304C8.60682 12.0012 8.61152 11.972 8.61689 11.9432C8.62125 11.9197 8.62562 11.8968 8.62998 11.874C8.63871 11.8297 8.64744 11.7857 8.65717 11.7417C8.7176 11.4614 8.78709 11.2328 8.8512 11.0479L9.70185 10.7669C9.40543 11.4252 9.15803 12.1385 9.15803 13.3994C9.15803 14.6643 9.40711 15.3783 9.70487 16.0386C9.70521 16.0393 9.70554 16.04 9.70588 16.0406C9.73106 16.0957 9.7559 16.1507 9.78141 16.2055C9.78242 16.2071 9.78309 16.2091 9.78409 16.2108C9.80927 16.2655 9.83512 16.3203 9.86097 16.375C9.86365 16.3807 9.866 16.3861 9.86869 16.3914C9.89957 16.4572 9.93079 16.524 9.96235 16.5918C9.96369 16.5949 9.96503 16.5979 9.96638 16.6009C10.0013 16.6764 10.0362 16.7533 10.0708 16.8319H10.0711C10.3823 17.5395 10.6522 18.3643 10.6522 19.7527C10.6522 21.448 10.2497 22.3033 9.86097 23.1305C9.76865 23.3262 9.67466 23.5263 9.58704 23.7401H8.8559C8.98615 23.3665 9.13755 23.0442 9.28626 22.7283C9.6478 21.9599 9.9892 21.2338 9.9892 19.7527C9.9892 18.2716 9.6478 17.5455 9.28593 16.7768C9.25236 16.705 9.21845 16.6328 9.18488 16.5603C9.18488 16.5603 9.18488 16.5599 9.18455 16.5599C9.16004 16.5069 9.1352 16.4529 9.11036 16.3971C9.10969 16.3955 9.10902 16.3938 9.10835 16.3924C8.92942 15.9943 8.74311 15.5203 8.62595 14.907C8.62528 14.9046 8.62461 14.9023 8.62394 14.8999C8.55344 14.5277 8.50712 14.1027 8.49738 13.6011C8.49738 13.6008 8.49738 13.6005 8.49738 13.6001C8.49604 13.5343 8.49503 13.4675 8.49503 13.3991C8.49537 13.3259 8.49604 13.2534 8.49772 13.1819ZM8.21607 17.5274C8.50309 18.1474 8.70216 18.6745 8.70216 19.7527C8.70216 20.9464 8.45844 21.4641 8.12141 22.1808C7.91395 22.6219 7.68467 23.1103 7.50709 23.7404H6.63899C6.64906 23.7196 6.65812 23.6998 6.66819 23.6783C7.07505 22.8129 7.58161 21.736 7.58161 19.7527C7.58161 18.897 7.48728 18.2102 7.3473 17.6362L8.21607 17.5274ZM7.50407 15.7543C7.50608 15.7617 7.50843 15.7684 7.51045 15.7754C7.53462 15.8607 7.55946 15.9433 7.58531 16.0235C7.58833 16.0322 7.59135 16.041 7.59403 16.0497C7.62123 16.1329 7.64909 16.2138 7.67762 16.2924C7.67829 16.2937 7.67896 16.2958 7.6793 16.2971L6.92533 16.3918C6.925 16.3911 6.92466 16.3904 6.92466 16.3901C6.84678 16.2088 6.76789 16.0396 6.69203 15.8785L7.50407 15.7543ZM7.26438 14.4887L7.08277 14.5162L7.2617 14.4625C7.26237 14.4713 7.26338 14.48 7.26438 14.4887ZM6.09147 13.161C6.09181 13.1506 6.09181 13.1402 6.09214 13.1302C6.09483 13.055 6.09886 12.9818 6.10389 12.9103C6.10423 12.9056 6.10456 12.9009 6.1049 12.8962L7.24357 12.5202C7.24189 12.5373 7.24122 12.5551 7.23988 12.5722C7.23686 12.6132 7.23417 12.6545 7.23149 12.6958C7.22645 12.773 7.22209 12.8512 7.21873 12.9301C7.21672 12.9721 7.21504 13.0143 7.21403 13.0566C7.21302 13.0825 7.21168 13.1077 7.21101 13.1339L6.08845 13.4709C6.08812 13.4467 6.08744 13.4239 6.08744 13.3994C6.08744 13.3175 6.08912 13.2386 6.09147 13.161ZM4.2455 14.7858C4.24516 14.7835 4.24516 14.7814 4.24483 14.7791C4.20857 14.5676 4.18205 14.3491 4.16392 14.1208C4.16392 14.1171 4.16359 14.1131 4.16325 14.1094C4.15956 14.0617 4.1562 14.0134 4.15352 13.965C4.15251 13.9476 4.1515 13.9301 4.1505 13.9123C4.14882 13.8761 4.1468 13.8391 4.14546 13.8022C4.14445 13.7821 4.14378 13.7619 4.14311 13.7415C4.14177 13.7039 4.14076 13.6656 4.14009 13.6273C4.13975 13.6089 4.13908 13.5904 4.13875 13.5719C4.13774 13.5149 4.13707 13.4575 4.13707 13.3994C4.13707 13.3437 4.13807 13.2886 4.13908 13.2336C4.13975 13.1933 4.14076 13.1533 4.14177 13.1137C4.14714 12.9355 4.15687 12.7612 4.17198 12.5934L4.86686 12.3641C4.85914 12.4178 4.8531 12.4732 4.84706 12.5286C4.84504 12.5467 4.84236 12.5645 4.84034 12.583C4.83363 12.6471 4.82826 12.7132 4.82356 12.7794C4.82188 12.8015 4.81953 12.823 4.81819 12.8452C4.81383 12.9103 4.8108 12.9771 4.80812 13.0446C4.80711 13.0687 4.80543 13.0922 4.80476 13.1171C4.80174 13.2091 4.8004 13.303 4.8004 13.3994C4.8004 13.4904 4.80174 13.5793 4.80409 13.6666C4.83934 14.8566 5.11024 15.5297 5.41472 16.186C5.41774 16.1924 5.42076 16.1991 5.42378 16.2058C5.4503 16.2622 5.47648 16.3186 5.50334 16.3753C5.50468 16.378 5.50602 16.3807 5.50737 16.3837C5.53993 16.4529 5.57283 16.5227 5.60539 16.5938C5.60606 16.5949 5.60673 16.5962 5.60707 16.5975C5.7108 16.8218 5.81385 17.0554 5.90684 17.3116C5.90684 17.3119 5.90718 17.3119 5.90718 17.3122C6.12873 17.9229 6.29457 18.6644 6.29457 19.7527C6.29457 21.4483 5.89241 22.3033 5.50334 23.1305C5.41102 23.3265 5.31703 23.5263 5.22941 23.7404H4.49827C4.62852 23.3668 4.77992 23.0445 4.92863 22.7286C5.28984 21.9602 5.63157 21.2341 5.63157 19.7527C5.63157 18.274 5.29118 17.5479 4.93031 16.7808C4.92964 16.7795 4.9293 16.7781 4.92863 16.7768C4.9105 16.7389 4.89271 16.7006 4.87492 16.6623C4.86854 16.6492 4.8625 16.6358 4.85612 16.6224C4.83732 16.5821 4.81852 16.5411 4.79939 16.4999C4.79536 16.4911 4.79133 16.4824 4.78731 16.4737C4.76716 16.4297 4.74736 16.385 4.72722 16.3397C4.72487 16.3344 4.72218 16.3286 4.71983 16.3229C4.69868 16.2749 4.67753 16.2263 4.65672 16.1766C4.65571 16.1742 4.65504 16.1722 4.65404 16.1699C4.56575 15.9594 4.48216 15.7355 4.40898 15.4884C4.40864 15.4867 4.40797 15.4854 4.40764 15.4837C4.34453 15.2709 4.28947 15.0406 4.2455 14.7858ZM37.6402 25.0278C37.2152 28.7725 35.5176 35.3373 29.0519 39.4787H15.8786C15.5231 39.4787 15.2351 39.7671 15.2351 40.1226C15.2351 40.4781 15.5231 40.7661 15.8786 40.7661H28.5503V41.6101C28.5503 41.9844 28.2462 42.2885 27.8722 42.2885H11.0926C10.7187 42.2885 10.4142 41.9844 10.4142 41.6101V40.7661H12.8835C13.239 40.7661 13.5274 40.4781 13.5274 40.1226C13.5274 39.7671 13.239 39.4787 12.8835 39.4787H9.90595C3.44017 35.3366 1.74291 28.7725 1.31792 25.0278H37.6402ZM42.7032 11.8975C42.6914 11.9126 42.6773 11.9143 42.6726 11.915L19.3396 14.8368C19.2704 14.5988 19.214 14.3192 19.1845 13.9677L42.4631 10.407C42.4678 10.4063 42.4819 10.4043 42.497 10.4157C42.5121 10.4268 42.5142 10.4409 42.5148 10.4456L42.7119 11.8639C42.7126 11.8683 42.7146 11.8827 42.7032 11.8975Z" fill="#8F6363"/>
</g>
<defs>
<clipPath id="clip0">
<rect width="44" height="44" fill="white"/>
</clipPath>
</defs>
</svg>
