<svg width="49" height="50" viewBox="0 0 49 50" fill="none" xmlns="http://www.w3.org/2000/svg">
<g clip-path="url(#clip0)">
<path d="M47.6629 23.9601L41.4503 17.4993V8.36221C41.4503 7.55015 40.8173 6.89162 40.0363 6.89162H31.2505L25.0384 0.430735C24.7733 0.155 24.4136 0 24.0384 0C23.6633 0 23.3037 0.155 23.0386 0.430735L16.8263 6.89176H8.04041C7.25958 6.89176 6.62638 7.55029 6.62638 8.36235V17.4994L0.414133 23.9601C-0.138044 24.5344 -0.138044 25.4656 0.414133 26.04L6.62638 32.5009V41.6379C6.62638 42.45 7.25958 43.1085 8.04041 43.1085H16.8265L23.0387 49.5696C23.3038 49.8453 23.6636 50.0003 24.0386 50.0003C24.4136 50.0003 24.7733 49.8453 25.0384 49.5696L31.2507 43.1085H40.0364C40.8174 43.1085 41.4505 42.45 41.4505 41.6379V32.5009L47.663 26.04C47.9281 25.7641 48.0772 25.3901 48.0772 25.0001C48.0772 24.6101 47.928 24.236 47.6629 23.9601ZM39.0365 30.8516C38.7713 31.1275 38.6223 31.5015 38.6223 31.8915V40.1671H30.6648C30.2898 40.1671 29.9301 40.3221 29.665 40.5978L24.0384 46.4497L18.412 40.5979C18.1469 40.3222 17.7872 40.1672 17.4122 40.1672H9.45443V31.8916C9.45443 31.5016 9.30539 31.1276 9.04026 30.8518L3.41371 25L9.04026 19.1484C9.30539 18.8725 9.45443 18.4985 9.45443 18.1085V9.83279H17.4122C17.7872 9.83279 18.1469 9.67779 18.412 9.40206L24.0384 3.55044L29.6648 9.40221C29.93 9.67794 30.2897 9.83294 30.6647 9.83294H38.6221V18.1085C38.6221 18.4985 38.7712 18.8725 39.0363 19.1484L44.6631 25L39.0365 30.8516Z" fill="#C9AFA5"/>
<path d="M20.4779 17.0197C20.5235 17.0169 20.5646 16.9915 20.5889 16.9515C20.6133 16.9116 20.6176 16.8619 20.6005 16.8181L19.6933 14.4702C19.677 14.4278 19.6428 14.3958 19.6002 14.3834C19.5577 14.3709 19.5127 14.3799 19.4774 14.4072C19.3371 14.5166 19.1774 14.6224 19.0085 14.7344C18.6495 14.9721 18.2783 15.2178 18.0331 15.5383C17.9989 15.583 17.9925 15.6441 18.0171 15.6952C18.7821 17.3025 18.4899 19.8219 18.2552 21.8466C18.2008 22.3168 18.1495 22.7609 18.1147 23.1624C17.9907 24.5978 16.8567 25.2403 15.7879 25.2403C15.0143 25.2403 14.3402 24.8984 14.029 24.3478C13.696 23.7588 13.7735 22.9731 14.2532 22.0759C14.2805 22.025 14.2764 21.9622 14.2425 21.9158C14.2124 21.8743 14.166 21.8505 14.1152 21.8505C13.7855 21.8505 12.4364 23.8924 12.3662 25.421C12.3283 26.2472 12.6391 27.2674 14.3343 27.4356C14.4846 27.4506 14.6434 27.4581 14.8063 27.4581C16.4492 27.4581 19.1323 26.6299 19.3361 24.4078C19.3659 24.0821 19.3816 23.5535 19.4002 22.9415C19.457 21.0378 19.5759 17.0762 20.4779 17.0197Z" fill="#C9AFA5"/>
<path d="M36.6893 23.4121C35.9376 23.3146 35.2747 22.9919 34.716 22.4503C34.4943 22.2459 34.2683 22.0275 34.0496 21.816C33.4304 21.2175 32.79 20.5985 32.0804 20.1287C31.9205 20.0228 31.7413 19.9691 31.5472 19.9691C30.5712 19.9691 29.541 21.2806 29.4358 22.0734C29.386 22.4493 29.5343 22.7165 29.8431 22.8069C29.8997 22.8231 29.9605 22.8018 29.9956 22.7524C30.306 22.3126 30.6049 22.0988 30.9089 22.0988C31.3331 22.0988 31.7808 22.5088 32.2551 22.9431C32.452 23.1232 32.6532 23.3076 32.8662 23.4775C32.1346 23.5701 31.4447 23.619 30.8535 23.619C29.7222 23.619 28.3584 23.4429 28.2867 22.6049C28.1544 21.0637 28.4185 19.4232 28.6733 17.8368C28.8078 17.001 28.9468 16.1368 29.023 15.3088C29.028 15.2534 29.0025 15.1997 28.9573 15.1701C28.9117 15.1407 28.8542 15.1406 28.8084 15.1693C27.3795 16.0754 26.8806 17.4285 26.3526 18.861C25.9956 19.8301 25.6274 20.8293 24.9496 21.7822C24.5569 18.9141 23.508 16.7325 21.7495 15.1206C21.7119 15.0862 21.6592 15.0747 21.612 15.0913C21.5644 15.1073 21.5285 15.1488 21.5178 15.1995C21.4622 15.4632 21.3943 15.7263 21.3283 15.9806C20.9899 17.2857 20.6705 18.5187 22.151 19.4459C22.1924 19.4721 22.244 19.474 22.2877 19.4513C22.3311 19.4285 22.3601 19.3841 22.3648 19.3337L22.3808 19.1572C23.2286 20.435 23.6974 21.5787 23.9229 22.906C23.5299 23.2634 22.954 23.579 22.3965 23.8844C21.6952 24.2685 20.9706 24.6656 20.5806 25.1629C20.5366 25.219 20.5386 25.3 20.5849 25.354C21.1166 25.9724 21.6944 26.286 22.302 26.286C24.4106 26.286 26.2978 22.5625 27.1595 20.5612C27.1554 20.589 27.1511 20.6168 27.147 20.6443C26.8234 22.8107 26.4886 25.0509 29.0513 25.7519C29.0609 25.7547 29.0709 25.7562 29.0811 25.7566C29.3132 25.7669 29.5683 25.7722 29.8398 25.7722H29.84C30.8693 25.7722 36.0377 25.6679 36.8036 23.6106C36.8193 23.5684 36.8154 23.521 36.7931 23.4822C36.7708 23.4437 36.7324 23.4176 36.6893 23.4121Z" fill="#C9AFA5"/>
<path d="M18.0839 30.455H16.7936V28.6109H15.873V33.2211H16.7936V31.2825H18.0839V33.2211H19.0044V28.6109H18.0839V30.455Z" fill="#C9AFA5"/>
<path d="M20.5087 28.5992L19.4004 33.2212H20.3891L20.5995 32.2283H21.6849L21.9008 33.2212H22.884L21.776 28.5992H20.5087ZM20.7758 31.4008L21.1395 29.7045L21.5032 31.4008H20.7758Z" fill="#C9AFA5"/>
<path d="M24.2037 28.6109H23.2832V33.2211H25.8406V32.3937H24.2037V28.6109Z" fill="#C9AFA5"/>
<path d="M27.1181 28.5992L26.0098 33.2212H26.9987L27.2089 32.2283H28.2946L28.5105 33.2212H29.4936L28.3853 28.5992H27.1181ZM27.3852 31.4008L27.7489 29.7045L28.1126 31.4008H27.3852Z" fill="#C9AFA5"/>
<path d="M30.8114 28.6109H29.8906V33.2211H32.4481V32.3937H30.8114V28.6109Z" fill="#C9AFA5"/>
</g>
<defs>
<clipPath id="clip0">
<rect width="48.0769" height="50" fill="white"/>
</clipPath>
</defs>
</svg>
