<svg width="42" height="42" viewBox="0 0 42 42" fill="none" xmlns="http://www.w3.org/2000/svg">
<g clip-path="url(#clip0)">
<path d="M20.9981 3.28442C19.1856 3.28442 17.3966 3.55781 15.6808 4.09696C15.2487 4.23279 15.0084 4.6932 15.1442 5.12539C15.2801 5.55757 15.7406 5.79799 16.1727 5.66199C17.7291 5.17288 19.3526 4.92492 20.9981 4.92492C29.8629 4.92492 37.0749 12.1369 37.0749 21.0018C37.0749 29.8666 29.8629 37.0786 20.9981 37.0786C12.1333 37.0786 4.92126 29.8666 4.92126 21.0018C4.92126 16.5127 6.81922 12.1956 10.1285 9.15714C10.4622 8.85078 10.4843 8.33189 10.178 7.99822C9.87161 7.66454 9.35272 7.6424 9.01904 7.94876C7.22927 9.59212 5.81902 11.5446 4.82767 13.752C3.80121 16.0377 3.28076 18.4769 3.28076 21.0018C3.28076 25.7343 5.12369 30.1834 8.47005 33.5298C11.8164 36.8762 16.2656 38.7191 20.9981 38.7191C25.7306 38.7191 30.1798 36.8762 33.5261 33.5298C36.8725 30.1834 38.7154 25.7343 38.7154 21.0018C38.7154 16.2693 36.8725 11.8201 33.5261 8.47372C30.1798 5.12735 25.7306 3.28442 20.9981 3.28442Z" fill="#8F6363"/>
<path d="M22.2165 8.10889C19.955 8.10889 18.1152 9.9487 18.1152 12.2101C18.1152 14.4715 19.955 16.3114 22.2165 16.3114C24.4779 16.3114 26.3177 14.4715 26.3177 12.2101C26.3177 9.94862 24.4779 8.10889 22.2165 8.10889ZM22.2165 14.6709C20.8596 14.6709 19.7557 13.567 19.7557 12.2101C19.7557 10.8533 20.8596 9.74938 22.2165 9.74938C23.5733 9.74938 24.6772 10.8533 24.6772 12.2101C24.6772 13.567 23.5733 14.6709 22.2165 14.6709Z" fill="#8F6363"/>
<path d="M16.5566 20.6179C16.5566 18.8088 15.0848 17.3369 13.2756 17.3369C11.4665 17.3369 9.99463 18.8088 9.99463 20.6179C9.99463 22.427 11.4665 23.8989 13.2756 23.8989C15.0848 23.8989 16.5566 22.427 16.5566 20.6179ZM13.2756 22.2584C12.3711 22.2584 11.6351 21.5225 11.6351 20.6179C11.6351 19.7133 12.3711 18.9774 13.2756 18.9774C14.1802 18.9774 14.9161 19.7133 14.9161 20.6179C14.9161 21.5225 14.1802 22.2584 13.2756 22.2584Z" fill="#8F6363"/>
<path d="M20.576 31.7732C21.9328 31.7732 23.0367 30.6693 23.0367 29.3125C23.0367 27.9556 21.9328 26.8517 20.576 26.8517C19.2191 26.8517 18.1152 27.9556 18.1152 29.3125C18.1152 30.6693 19.2191 31.7732 20.576 31.7732ZM20.576 28.4922C21.0283 28.4922 21.3962 28.8602 21.3962 29.3125C21.3962 29.7648 21.0283 30.1327 20.576 30.1327C20.1237 30.1327 19.7557 29.7648 19.7557 29.3125C19.7557 28.8602 20.1237 28.4922 20.576 28.4922Z" fill="#8F6363"/>
<path d="M30.6233 19.9827C29.2665 19.9827 28.1626 21.0866 28.1626 22.4434C28.1626 23.8003 29.2665 24.9042 30.6233 24.9042C31.9802 24.9042 33.0841 23.8003 33.0841 22.4434C33.0841 21.0866 31.9802 19.9827 30.6233 19.9827ZM30.6233 23.2637C30.171 23.2637 29.8031 22.8957 29.8031 22.4434C29.8031 21.9911 30.171 21.6232 30.6233 21.6232C31.0756 21.6232 31.4436 21.9911 31.4436 22.4434C31.4436 22.8957 31.0756 23.2637 30.6233 23.2637Z" fill="#8F6363"/>
<path d="M15.0873 27.2445C15.4764 27.0126 15.6037 26.5091 15.3718 26.12C15.1398 25.7308 14.6362 25.6035 14.2472 25.8355C12.7315 26.7393 12.6588 27.6738 12.7143 28.5535C12.7471 29.0724 12.7607 29.2872 11.9887 29.7473C11.5996 29.9793 11.4722 30.4828 11.7042 30.8719C11.8578 31.1294 12.13 31.2723 12.4095 31.2723C12.5524 31.2723 12.6972 31.2349 12.8288 31.1564C14.3349 30.2585 14.4069 29.3271 14.3515 28.4501C14.3186 27.9273 14.3049 27.7109 15.0873 27.2445Z" fill="#8F6363"/>
<path d="M22.1994 24.8872C22.331 24.9657 22.4757 25.003 22.6186 25.003C22.898 25.003 23.1704 24.8601 23.3239 24.6026C23.5559 24.2135 23.4285 23.7101 23.0394 23.4781C22.2674 23.0179 22.281 22.8031 22.3138 22.2842C22.3693 21.4045 22.2967 20.47 20.7809 19.5663C20.3919 19.3344 19.8883 19.4617 19.6563 19.8509C19.4244 20.24 19.5518 20.7435 19.9409 20.9754C20.7232 21.4419 20.7096 21.6582 20.6766 22.181C20.6212 23.058 20.6932 23.9893 22.1994 24.8872Z" fill="#8F6363"/>
<path d="M28.0483 17.7839C28.1799 17.8624 28.3246 17.8997 28.4676 17.8997C28.7469 17.8997 29.0194 17.7568 29.1729 17.4994C29.6394 16.717 29.8558 16.7304 30.3784 16.7636C31.2554 16.8191 32.1868 16.747 33.0847 15.2408C33.3167 14.8517 33.1893 14.3483 32.8002 14.1163C32.4112 13.8842 31.9076 14.0117 31.6756 14.4008C31.2155 15.1727 31.0007 15.1591 30.4818 15.1264C29.6019 15.0711 28.6675 15.1435 27.7638 16.6593C27.5318 17.0484 27.6591 17.5519 28.0483 17.7839Z" fill="#8F6363"/>
<path d="M9.64049 12.9734C9.41952 13.3688 9.56093 13.8686 9.95637 14.0896C10.6048 14.4519 11.1296 14.5884 11.5749 14.5884C12.1809 14.5884 12.6396 14.3356 13.0615 14.0552C13.4977 13.7653 13.6783 13.6453 14.4733 14.0896C14.8687 14.3106 15.3685 14.1692 15.5895 13.7737C15.8105 13.3783 15.6691 12.8785 15.2736 12.6575C13.733 11.7965 12.8874 12.201 12.1533 12.6889C11.7203 12.9767 11.5411 13.0958 10.7566 12.6575C10.3612 12.4365 9.86155 12.578 9.64049 12.9734Z" fill="#8F6363"/>
<path d="M26.5434 30.6877C26.4201 31.1236 26.6734 31.5769 27.1093 31.7003C27.184 31.7214 27.2592 31.7314 27.3332 31.7314C27.6909 31.7314 28.0198 31.4956 28.122 31.1344C28.37 30.2579 28.5825 30.2151 29.096 30.1117C29.9574 29.9382 30.8385 29.6276 31.3159 27.9404C31.4393 27.5045 31.186 27.0512 30.7501 26.9278C30.3144 26.8045 29.8608 27.0577 29.7375 27.4937C29.4928 28.3584 29.2817 28.4009 28.772 28.5036C27.9078 28.6777 27.0239 28.9897 26.5434 30.6877Z" fill="#8F6363"/>
<path d="M40.321 9.79956C42.5597 7.56086 42.5597 3.91822 40.321 1.6796C38.0823 -0.559095 34.4397 -0.559013 32.2011 1.6796L31.2169 2.66382C28.1906 0.970829 24.7055 0.0038401 20.9984 0.0038401C9.41988 0.0038401 8.20247e-05 9.42364 8.20247e-05 21.0022C8.20247e-05 24.7093 0.966989 28.1943 2.65998 31.2206L1.67576 32.2048C0.595089 33.2854 0 34.7274 0 36.2648C0 37.8023 0.595171 39.2442 1.67576 40.3248C2.75636 41.4055 4.19827 42.0006 5.73582 42.0006C7.27329 42.0006 8.7152 41.4055 9.7958 40.3249L10.78 39.3407C13.8062 41.0337 17.2913 42.0006 20.9984 42.0006C32.5769 42.0006 41.9967 32.5808 41.9967 21.0022C41.9967 17.2951 41.0297 13.8101 39.3368 10.7838L40.321 9.79956ZM33.361 2.8396C34.96 1.24053 37.5618 1.24053 39.161 2.8396C40.76 4.43859 40.76 7.04049 39.161 8.63948L38.4552 9.34522C38.1466 8.88465 37.8207 8.4368 37.4776 8.0028L38.001 7.47949C38.9604 6.52013 38.9604 4.95895 38.001 3.99951C37.0416 3.04015 35.4804 3.04007 34.521 3.99951L33.9977 4.52283C33.5638 4.1798 33.1158 3.85375 32.6553 3.54526L33.361 2.8396ZM36.841 6.3195L36.4072 6.75324C36.0357 6.35173 35.6487 5.96482 35.2472 5.59325L35.6809 5.1595C35.9954 4.8451 36.5266 4.84518 36.8409 5.1595C37.1554 5.47398 37.1554 6.00518 36.841 6.3195ZM8.63572 39.1648C7.86502 39.9356 6.83512 40.3601 5.73582 40.3601C4.63653 40.3601 3.60663 39.9356 2.83584 39.1648C2.06497 38.394 1.64049 37.3641 1.64049 36.2648C1.64049 35.1655 2.06497 34.1356 2.83576 33.3649L3.5415 32.6592C3.85007 33.1198 4.17604 33.5676 4.51907 34.0016L3.99575 34.5249C3.53444 34.9862 3.28041 35.6041 3.28041 36.2649C3.28041 36.9257 3.53444 37.5436 3.99575 38.0049C4.47551 38.4846 5.10563 38.7244 5.73574 38.7244C6.36585 38.7244 6.99597 38.4846 7.47565 38.0049L7.99905 37.4816C8.43296 37.8246 8.88089 38.1507 9.34146 38.4591L8.63572 39.1648ZM5.15583 35.6848L5.58957 35.2511C5.96114 35.6526 6.34805 36.0395 6.74957 36.4111L6.31582 36.8448C6.00142 37.1592 5.47023 37.1592 5.15591 36.8448C4.84142 36.5304 4.84142 35.9992 5.15583 35.6848ZM20.9984 40.36C10.3244 40.36 1.64058 31.6761 1.64058 21.0022C1.64058 10.3282 10.3244 1.64433 20.9984 1.64433C31.6724 1.64433 40.3562 10.3282 40.3562 21.0022C40.3562 31.6761 31.6724 40.36 20.9984 40.36Z" fill="#8F6363"/>
<path d="M17.447 32.566H17.4465C16.9934 32.566 16.6265 32.9332 16.6265 33.3862C16.6265 33.8392 16.994 34.2065 17.447 34.2065C17.9001 34.2065 18.2673 33.8392 18.2673 33.3862C18.2673 32.9332 17.9001 32.566 17.447 32.566Z" fill="#8F6363"/>
<path d="M8.50555 24.6915C8.05253 24.6915 7.68555 25.0588 7.68555 25.5118C7.68555 25.9648 8.0531 26.332 8.50612 26.332C8.95914 26.332 9.32637 25.9648 9.32637 25.5118C9.32637 25.0588 8.95914 24.6915 8.50612 24.6915H8.50555Z" fill="#8F6363"/>
<path d="M25.239 18.6218C24.7859 18.6218 24.4189 18.989 24.4189 19.442C24.4189 19.895 24.7865 20.2623 25.2395 20.2623C25.6925 20.2623 26.0598 19.895 26.0598 19.442C26.0598 18.989 25.6925 18.6218 25.2395 18.6218H25.239Z" fill="#8F6363"/>
<path d="M29.5866 10.0914C29.5866 9.6384 29.2194 9.27118 28.7664 9.27118H28.7658C28.3128 9.27118 27.9458 9.6384 27.9458 10.0914C27.9458 10.5444 28.3134 10.9117 28.7664 10.9117C29.2194 10.9117 29.5866 10.5444 29.5866 10.0914Z" fill="#8F6363"/>
<path d="M12.5507 7.18886C12.682 7.18886 12.8153 7.1572 12.939 7.0906C13.3379 6.87577 13.4871 6.37838 13.2724 5.97957C13.0575 5.58068 12.5601 5.43148 12.1613 5.64622L12.1608 5.64647C11.762 5.86129 11.613 6.35852 11.8277 6.75741C11.9759 7.0326 12.2585 7.18886 12.5507 7.18886Z" fill="#8F6363"/>
</g>
<defs>
<clipPath id="clip0">
<rect width="42" height="42" fill="white"/>
</clipPath>
</defs>
</svg>
