<svg width="42" height="42" viewBox="0 0 42 42" fill="none" xmlns="http://www.w3.org/2000/svg">
<g clip-path="url(#clip0)">
<path d="M13.5944 28.9028C13.5944 30.0118 14.4954 30.914 15.6029 30.914C16.7104 30.914 17.6114 30.0118 17.6114 28.9028C17.6114 27.7938 16.7104 26.8916 15.6029 26.8916C14.4954 26.8916 13.5944 27.7938 13.5944 28.9028ZM16.3828 28.9028C16.3828 29.3343 16.033 29.6854 15.603 29.6854C15.173 29.6854 14.8231 29.3343 14.8231 28.9028C14.8231 28.4713 15.173 28.1202 15.603 28.1202C16.033 28.1202 16.3828 28.4713 16.3828 28.9028ZM15.0215 13.1463C13.914 13.1463 13.013 14.0486 13.013 15.1575C13.013 16.2665 13.914 17.1687 15.0215 17.1687C16.129 17.1687 17.03 16.2665 17.03 15.1575C17.03 14.0486 16.129 13.1463 15.0215 13.1463ZM15.0215 15.9402C14.5915 15.9402 14.2417 15.5891 14.2417 15.1576C14.2417 14.7261 14.5915 14.3751 15.0215 14.3751C15.4515 14.3751 15.8014 14.7261 15.8014 15.1576C15.8014 15.5891 15.4515 15.9402 15.0215 15.9402ZM14.3409 25.1225C15.4484 25.1225 16.3494 24.2203 16.3494 23.1114C16.3494 22.0024 15.4484 21.1002 14.3409 21.1002C13.2335 21.1002 12.3325 22.0024 12.3325 23.1114C12.3325 24.2203 13.2335 25.1225 14.3409 25.1225ZM14.3409 22.3288C14.771 22.3288 15.1208 22.6799 15.1208 23.1114C15.1208 23.5429 14.771 23.8939 14.3409 23.8939C13.9109 23.8939 13.5611 23.5429 13.5611 23.1114C13.5611 22.6799 13.9109 22.3288 14.3409 22.3288ZM32.9305 29.1616C34.038 29.1616 34.939 28.2594 34.939 27.1504C34.939 26.0415 34.038 25.1393 32.9305 25.1393C31.823 25.1393 30.9221 26.0415 30.9221 27.1504C30.9221 28.2594 31.823 29.1616 32.9305 29.1616ZM32.9305 26.3679C33.3606 26.3679 33.7104 26.7189 33.7104 27.1504C33.7104 27.5819 33.3606 27.933 32.9305 27.933C32.5005 27.933 32.1507 27.5819 32.1507 27.1504C32.1507 26.7189 32.5005 26.3679 32.9305 26.3679ZM24.9001 26.9226C24.9001 28.0315 25.8011 28.9338 26.9086 28.9338C28.0161 28.9338 28.9171 28.0315 28.9171 26.9226C28.9171 25.8136 28.0161 24.9114 26.9086 24.9114C25.8011 24.9114 24.9001 25.8136 24.9001 26.9226ZM27.6885 26.9226C27.6885 27.3541 27.3386 27.7051 26.9086 27.7051C26.4786 27.7051 26.1288 27.3541 26.1288 26.9226C26.1288 26.4911 26.4786 26.14 26.9086 26.14C27.3386 26.14 27.6885 26.4911 27.6885 26.9226ZM38.4551 18.2425C38.2169 13.318 36.1138 8.72573 32.5331 5.31153C28.9408 1.88636 24.225 0 19.2545 0C14.1203 0 9.29308 1.99513 5.66231 5.61787C2.03105 9.24102 0.03125 14.0583 0.03125 19.1823C0.03125 24.1428 1.92252 28.8491 5.35671 32.434C8.77918 36.0067 13.382 38.1047 18.317 38.3413C19.1418 38.3809 19.8731 37.6855 19.8688 36.8551V19.7966H36.9706C37.7998 19.8003 38.4953 19.073 38.4551 18.2425ZM6.53013 6.48758C9.78371 3.24121 14.064 1.39228 18.6403 1.2401V3.71235C10.4672 4.03032 4.06992 10.6054 3.7522 18.568H1.27143C1.42427 14.003 3.27713 9.73338 6.53013 6.48758ZM9.20232 12.7348C9.20232 13.732 8.39315 14.5433 7.39853 14.5433C6.85195 14.5433 6.3365 14.2914 5.99666 13.8716C6.41833 12.8273 6.95983 11.8437 7.60518 10.9384C8.50282 11.0415 9.20232 11.8077 9.20232 12.7348ZM18.6402 36.8551C18.6339 37.0245 18.5414 37.122 18.3759 37.1141C13.7564 36.8927 9.4478 34.9287 6.24386 31.5842C3.17204 28.3774 1.4205 24.2121 1.27143 19.7966H3.75212C4.05076 27.7447 10.5073 34.3499 18.6402 34.6526V36.8551ZM6.18235 24.9307C6.5778 24.6327 7.05533 24.4719 7.56063 24.4719C8.83152 24.4719 9.86545 25.5083 9.86545 26.7823C9.86545 27.6166 9.41291 28.3796 8.70726 28.7866C7.66956 27.6534 6.81305 26.3527 6.18235 24.9307ZM18.6402 33.4219C15.1607 33.2743 11.9996 31.8796 9.59532 29.6749C10.517 29.0218 11.0941 27.9473 11.0941 26.7823C11.0941 24.8309 9.50899 23.2432 7.56063 23.2432C6.89954 23.2432 6.26999 23.4229 5.72284 23.7586C5.29626 22.5065 5.04062 21.1765 4.98165 19.7966H18.6402V33.4219ZM19.8688 18.568V11.4109C19.8688 11.0716 19.5938 10.7966 19.2545 10.7966C18.9152 10.7966 18.6402 11.0716 18.6402 11.4109V18.568H4.98165C5.03227 17.3832 5.22852 16.2356 5.55288 15.1423C6.07521 15.5433 6.72254 15.7719 7.39853 15.7719C9.07061 15.7719 10.431 14.4095 10.431 12.7348C10.431 11.4253 9.59909 10.3067 8.4368 9.88122C10.9338 6.99427 14.5692 5.11454 18.6402 4.9418V8.54406C18.6402 8.88333 18.9152 9.15838 19.2545 9.15838C19.5938 9.15838 19.8688 8.88333 19.8688 8.54406V4.9418C21.1532 4.99627 22.3942 5.22045 23.5698 5.59289C23.2372 6.06944 23.0517 6.6419 23.0517 7.24327C23.0517 8.83377 24.3437 10.1278 25.9318 10.1278C27.1051 10.1278 28.1271 9.40771 28.5728 8.38581C31.4681 10.8769 33.3537 14.505 33.5272 18.5679H19.8688V18.568ZM24.2804 7.24327C24.2804 6.78368 24.4685 6.35317 24.7945 6.04322C25.7722 6.45514 26.6946 6.97272 27.5474 7.58147C27.39 8.33093 26.7205 8.89922 25.9318 8.89922C25.0213 8.89914 24.2804 8.15639 24.2804 7.24327ZM19.8688 3.71227V1.24018C24.2951 1.38852 28.4709 3.13596 31.6852 6.20082C35.0366 9.39632 37.005 13.6938 37.2279 18.3018C37.236 18.4691 37.1384 18.5615 36.9705 18.568H34.758C34.4377 10.4091 27.8315 4.0177 19.8688 3.71227ZM40.744 22.2137H33.5427C33.2035 22.2137 32.9284 22.4888 32.9284 22.828C32.9284 23.1673 33.2035 23.4424 33.5427 23.4424H37.0352C36.8597 27.5522 34.9328 31.2168 31.9814 33.7111C31.5197 32.4224 30.2878 31.4975 28.845 31.4975C27.0081 31.4975 25.5137 32.9942 25.5137 34.8341C25.5137 35.5032 25.7186 36.152 26.0847 36.6975C25.2079 36.907 24.3001 37.0355 23.3696 37.075V23.7011C23.3696 23.5584 23.4849 23.4424 23.6266 23.4424H30.6758C31.0151 23.4424 31.2902 23.1673 31.2902 22.828C31.2902 22.4888 31.0151 22.2137 30.6758 22.2137H23.6266C22.8074 22.2137 22.1409 22.881 22.1409 23.7011V40.7743C22.1369 41.4514 22.7223 42.0217 23.4009 41.9993C28.2868 41.8384 32.8845 39.8474 36.3469 36.3932C39.8095 32.9387 41.8058 28.351 41.9678 23.4752C41.9905 22.7938 41.4213 22.2108 40.744 22.2137ZM28.8451 32.7261C29.8986 32.7261 30.7742 33.5081 30.9246 34.5235C29.8373 35.2817 28.6405 35.8935 27.3621 36.3288C26.9651 35.9353 26.7424 35.405 26.7424 34.834C26.7424 33.6718 27.6857 32.7261 28.8451 32.7261ZM35.4791 35.5234C32.2402 38.7547 27.9399 40.6181 23.3697 40.771V38.3044C31.2802 38.0152 37.9594 31.5657 38.2647 23.4424H40.7396C40.586 28.0019 38.718 32.2923 35.4791 35.5234ZM26.8989 15.3391C26.8989 16.4481 27.7999 17.3503 28.9073 17.3503C30.0148 17.3503 30.9158 16.4481 30.9158 15.3391C30.9158 14.2302 30.0148 13.3279 28.9073 13.3279C27.7999 13.3279 26.8989 14.2302 26.8989 15.3391ZM29.6873 15.3391C29.6873 15.7706 29.3374 16.1217 28.9074 16.1217C28.4774 16.1217 28.1276 15.7706 28.1276 15.3391C28.1276 14.9076 28.4774 14.5566 28.9074 14.5566C29.3374 14.5566 29.6873 14.9076 29.6873 15.3391ZM15.0215 7.16136C13.914 7.16136 13.013 8.06359 13.013 9.17255C13.013 10.2815 13.914 11.1837 15.0215 11.1837C16.129 11.1837 17.03 10.2815 17.03 9.17255C17.03 8.06359 16.129 7.16136 15.0215 7.16136ZM15.0215 9.9551C14.5915 9.9551 14.2417 9.60404 14.2417 9.17255C14.2417 8.74105 14.5915 8.38999 15.0215 8.38999C15.4515 8.38999 15.8014 8.74105 15.8014 9.17255C15.8014 9.60404 15.4515 9.9551 15.0215 9.9551ZM22.9953 13.1463C21.8878 13.1463 20.9869 14.0486 20.9869 15.1575C20.9869 16.2665 21.8878 17.1687 22.9953 17.1687C24.1028 17.1687 25.0038 16.2665 25.0038 15.1575C25.0038 14.0486 24.1028 13.1463 22.9953 13.1463ZM22.9953 15.9402C22.5653 15.9402 22.2155 15.5891 22.2155 15.1576C22.2155 14.7261 22.5653 14.3751 22.9953 14.3751C23.4254 14.3751 23.7752 14.7261 23.7752 15.1576C23.7752 15.5891 23.4254 15.9402 22.9953 15.9402Z" fill="#8F6363"/>
</g>
<defs>
<clipPath id="clip0">
<rect width="42" height="42" fill="white"/>
</clipPath>
</defs>
</svg>
