<svg width="46" height="48" viewBox="0 0 46 48" fill="none" xmlns="http://www.w3.org/2000/svg">
<path d="M34.6647 22.8633C35.0288 22.8633 35.3239 22.5682 35.3239 22.2041C35.3239 21.84 35.0288 21.5449 34.6647 21.5449H31.3249C31.2383 21.5449 31.1526 21.562 31.0726 21.5951C30.9926 21.6282 30.9199 21.6768 30.8587 21.738C30.7975 21.7992 30.7489 21.8718 30.7158 21.9518C30.6827 22.0318 30.6657 22.1175 30.6657 22.2041V28.7959C30.6657 29.16 30.9607 29.4551 31.3249 29.4551H34.6647C35.0288 29.4551 35.3239 29.16 35.3239 28.7959C35.3239 28.4318 35.0288 28.1367 34.6647 28.1367H31.984V25.5H33.3463C33.7105 25.5 34.0055 25.205 34.0055 24.8408C34.0055 24.4767 33.7105 24.1816 33.3463 24.1816H31.984V22.8633H34.6647ZM28.696 21.5449C28.6095 21.5449 28.5238 21.562 28.4438 21.5951C28.3638 21.6282 28.2911 21.6768 28.2299 21.738C28.1687 21.7992 28.1201 21.8718 28.087 21.9518C28.0539 22.0318 28.0369 22.1175 28.0369 22.2041V25.5H24.9607V22.2041C24.9607 21.84 24.6656 21.5449 24.3015 21.5449C23.9374 21.5449 23.6423 21.84 23.6423 22.2041V28.7959C23.6423 29.16 23.9374 29.4551 24.3015 29.4551C24.6656 29.4551 24.9607 29.16 24.9607 28.7959V26.8184H28.0369V28.7959C28.0369 29.16 28.3319 29.4551 28.696 29.4551C29.0602 29.4551 29.3552 29.16 29.3552 28.7959V22.2041C29.3552 22.0293 29.2858 21.8616 29.1622 21.738C29.0385 21.6144 28.8709 21.5449 28.696 21.5449ZM20.1777 24.8689C19.7134 24.7285 19.2748 24.596 19.1302 24.3462C19.0436 24.1959 18.9981 24.0255 18.9982 23.8521C18.9982 23.3069 19.4418 22.8633 19.987 22.8633C20.3006 22.8633 20.5892 23.0077 20.7785 23.2594C20.8305 23.3286 20.8956 23.3869 20.9702 23.4309C21.0447 23.475 21.1272 23.5039 21.2129 23.516C21.2986 23.5282 21.3859 23.5233 21.4697 23.5017C21.5535 23.4801 21.6323 23.4422 21.7014 23.3901C21.7707 23.3381 21.8289 23.273 21.873 23.1984C21.917 23.1239 21.9459 23.0414 21.958 22.9557C21.9702 22.87 21.9653 22.7827 21.9437 22.6989C21.9221 22.6151 21.8842 22.5363 21.8321 22.4672C21.398 21.8897 20.7082 21.5449 19.987 21.5449C18.7147 21.5449 17.6798 22.5798 17.6798 23.8521C17.6798 24.2572 17.7867 24.6563 17.989 25.0062C18.3946 25.7072 19.1393 25.9323 19.7962 26.1309C20.5001 26.3438 20.9758 26.4699 20.9758 27.1479C20.9758 27.6931 20.5322 28.1367 19.9871 28.1367C19.8135 28.1363 19.643 28.0904 19.4927 28.0036C19.3424 27.9168 19.2174 27.7921 19.1303 27.642C19.0869 27.567 19.0293 27.5014 18.9605 27.4488C18.8918 27.3961 18.8134 27.3575 18.7297 27.3352C18.6461 27.3129 18.5589 27.3073 18.473 27.3187C18.3872 27.3301 18.3045 27.3583 18.2296 27.4017C18.1547 27.445 18.089 27.5027 18.0364 27.5715C17.9838 27.6402 17.9452 27.7186 17.9229 27.8023C17.9006 27.8859 17.8949 27.9731 17.9063 28.0589C17.9177 28.1447 17.9459 28.2275 17.9893 28.3024C18.4008 29.0134 19.1663 29.4551 19.9871 29.4551C21.2593 29.4551 22.2942 28.4202 22.2942 27.1479C22.2942 26.7423 22.1872 26.3431 21.9849 25.9936C21.5793 25.2927 20.8347 25.0675 20.1777 24.8689ZM13.0436 21.5449C10.8628 21.5449 9.08853 23.3192 9.08853 25.5C9.08853 27.6808 10.8628 29.4551 13.0436 29.4551C15.2244 29.4551 16.9987 27.6808 16.9987 25.5C16.9987 23.3192 15.2244 21.5449 13.0436 21.5449ZM13.0436 28.1367C11.5897 28.1367 10.4069 26.9539 10.4069 25.5C10.4069 24.0461 11.5897 22.8633 13.0436 22.8633C14.4975 22.8633 15.6803 24.0461 15.6803 25.5C15.6803 26.9539 14.4975 28.1367 13.0436 28.1367ZM8.77581 21.7423C8.65332 21.6176 8.48632 21.5467 8.31153 21.545C8.13673 21.5434 7.96844 21.6112 7.84364 21.7336L5.00952 24.5154V22.2041C5.00952 21.84 4.71447 21.5449 4.35034 21.5449C3.98621 21.5449 3.69116 21.84 3.69116 22.2041V28.7959C3.69116 29.16 3.98621 29.4551 4.35034 29.4551C4.71447 29.4551 5.00952 29.16 5.00952 28.7959V26.3626L5.60691 25.7763L7.7496 29.1381C7.84357 29.2855 7.99224 29.3895 8.16292 29.4273C8.33359 29.4651 8.51229 29.4335 8.65971 29.3396C8.73271 29.2931 8.79584 29.2326 8.84548 29.1617C8.89512 29.0908 8.9303 29.0108 8.94902 28.9263C8.96773 28.8418 8.96961 28.7544 8.95455 28.6692C8.93949 28.5839 8.90778 28.5025 8.86124 28.4295L6.56861 24.8326L8.7672 22.6747C8.89196 22.5522 8.96296 22.3851 8.96457 22.2103C8.96619 22.0354 8.89829 21.8671 8.77581 21.7423ZM41.3083 24.1816C41.3083 22.7278 40.13 21.5449 38.6816 21.5449H37.1335C37.047 21.5449 36.9613 21.562 36.8813 21.5951C36.8013 21.6282 36.7286 21.6768 36.6674 21.738C36.6062 21.7992 36.5576 21.8718 36.5245 21.9518C36.4914 22.0318 36.4744 22.1175 36.4744 22.2041V28.7959C36.4744 29.16 36.7694 29.4551 37.1335 29.4551C37.4977 29.4551 37.7927 29.16 37.7927 28.7959V26.8184H38.351L40.1209 29.1901C40.1822 29.2725 40.262 29.3393 40.3538 29.3854C40.4457 29.4314 40.547 29.4553 40.6497 29.4551C40.7719 29.455 40.8917 29.4209 40.9957 29.3567C41.0997 29.2924 41.1838 29.2005 41.2385 29.0912C41.2933 28.9819 41.3166 28.8595 41.3058 28.7378C41.295 28.616 41.2505 28.4997 41.1774 28.4017L39.806 26.564C40.6934 26.1403 41.3083 25.2318 41.3083 24.1816ZM38.6816 25.5H37.7927V22.8633H38.6816C39.4031 22.8633 39.99 23.4547 39.99 24.1816C39.99 24.9086 39.4031 25.5 38.6816 25.5Z" fill="#9D7777"/>
<path d="M45 25.5C45 23.1589 43.7723 21.1005 41.9279 19.9308C44.3474 15.7378 41.308 10.9321 36.8478 10.9321H30.5048L27.6377 5.96631C26.5653 4.10892 24.6447 3 22.5 3C20.3553 3 18.4346 4.10892 17.3621 5.96631L14.4951 10.9321H12.1511C11.787 10.9321 11.4919 11.2272 11.4919 11.5913C11.4919 11.9554 11.787 12.2505 12.1511 12.2505H13.734L11.4501 16.2064H8.15216C7.64512 16.2064 7.3281 16.7565 7.58131 17.1951L8.57026 18.9082H6.68017C5.85402 18.9082 5.03501 19.0613 4.26467 19.3598C2.23879 15.8498 4.78534 12.2505 8.15216 12.2505H9.51438C9.87851 12.2505 10.1736 11.9554 10.1736 11.5913C10.1736 11.2272 9.87851 10.9321 9.51438 10.9321H8.15216C3.72661 10.9321 0.626002 15.6947 3.0858 19.9546C1.25837 21.1151 0.0301032 23.1274 0.00057193 25.4126C-0.0301019 27.7772 1.17532 29.8702 3.06989 31.0729C0.639361 35.283 3.7129 40.0679 8.15216 40.0679H14.4951L17.3622 45.0337C18.4346 46.8911 20.3567 48 22.5037 48C24.6461 48 26.5653 46.8911 27.6378 45.0338L28.2841 43.9143C28.3715 43.7629 28.3952 43.583 28.35 43.4141C28.3047 43.2453 28.1943 43.1013 28.0429 43.0139C27.9679 42.9706 27.8852 42.9425 27.7993 42.9312C27.7135 42.9198 27.6263 42.9256 27.5427 42.948C27.459 42.9704 27.3807 43.009 27.312 43.0617C27.2433 43.1144 27.1857 43.1802 27.1424 43.2551L26.4961 44.3745C25.662 45.8192 24.1695 46.6816 22.5038 46.6816C20.8334 46.6816 19.3381 45.8192 18.504 44.3745L16.0175 40.0679H20.5821L21.9215 42.3883C22.0392 42.5923 22.2721 42.7179 22.5077 42.7179C22.7432 42.7179 22.9609 42.5923 23.0785 42.3884L29.0222 32.0918H33.5874L28.4637 40.9666C28.3777 41.1179 28.355 41.2971 28.4006 41.4651C28.4462 41.6331 28.5564 41.7762 28.7071 41.8632C28.8579 41.9503 29.0369 41.9741 29.2052 41.9296C29.3735 41.8851 29.5174 41.7759 29.6054 41.6257L30.5048 40.0679H36.8477C41.275 40.0679 44.3656 35.2927 41.9278 31.0693C43.7722 29.8995 45 27.8411 45 25.5ZM36.8478 12.2505C40.2498 12.2505 42.7347 15.8962 40.7475 19.3385C40.0005 19.0537 39.2077 18.9078 38.4082 18.9082H36.4297L37.4186 17.1951C37.6721 16.7559 37.3542 16.2064 36.8478 16.2064H19.0616L21.3455 12.2505H36.8478ZM35.7061 17.5247L35.0086 18.733L34.311 17.5247H35.7061ZM33.5874 18.9082H29.0206L28.2218 17.5247H32.7887L33.5874 18.9082ZM27.4982 18.9082H17.5017L18.3005 17.5247H26.6995L27.4982 18.9082ZM22.1066 10.9321L22.5 10.251L22.8933 10.9321H22.1066ZM18.5039 6.62549C19.338 5.18083 20.8318 4.31836 22.5 4.31836C24.1681 4.31836 25.6619 5.18083 26.496 6.62549L28.9825 10.9321H24.4155L23.0708 8.60303C23.0129 8.50283 22.9297 8.41962 22.8295 8.36177C22.7293 8.30392 22.6157 8.27347 22.5 8.27347C22.3843 8.27347 22.2706 8.30392 22.1704 8.36177C22.0702 8.41962 21.987 8.50283 21.9291 8.60303L15.9794 18.9082H11.4125L18.5039 6.62549ZM10.689 17.5247L9.99127 18.733L9.29377 17.5247H10.689ZM22.5 40.7535L22.1042 40.0679H22.8957L22.5 40.7535ZM23.6568 38.7495H8.15216C4.77075 38.7495 2.24996 35.129 4.2507 31.6644C5.61854 32.183 6.51441 32.0918 8.57079 32.0918L7.58123 33.8057C7.32766 34.2449 7.64574 34.7944 8.15208 34.7944H25.9398L23.6568 38.7495ZM9.29386 33.4761L9.99163 32.2676L10.6894 33.4761H9.29386ZM11.4124 32.0918H15.9776L16.7767 33.4761H12.2117L11.4124 32.0918ZM26.701 33.4761H18.299L17.4999 32.0918H27.5L26.701 33.4761ZM36.8478 38.7495H31.266L33.5494 34.7944H36.8478C37.3549 34.7944 37.6718 34.2442 37.4186 33.8057L36.429 32.0918H38.4082C39.2077 32.0922 40.0005 31.9463 40.7475 31.6615C42.7464 35.1242 40.2347 38.7495 36.8478 38.7495ZM34.3105 33.4761L35.0082 32.2676L35.706 33.4761H34.3105ZM38.4082 30.7734H6.59175C3.6555 30.7734 1.2807 28.3797 1.31876 25.4297C1.35593 22.5607 3.76106 20.2266 6.68017 20.2266H38.4082C41.3159 20.2266 43.6816 22.5922 43.6816 25.5C43.6816 28.4078 41.3159 30.7734 38.4082 30.7734Z" fill="#9D7777"/>
</svg>
