<svg width="327" height="59" viewBox="0 0 327 59" fill="none" xmlns="http://www.w3.org/2000/svg">
<path d="M74.5227 45H70.7955L79.1705 21.7273H83.2273L91.6023 45H87.875L81.2955 25.9545H81.1136L74.5227 45ZM75.1477 35.8864H87.2386V38.8409H75.1477V35.8864ZM105.747 37.7614V27.5455H109.156V45H105.815V41.9773H105.634C105.232 42.9091 104.588 43.6856 103.702 44.3068C102.823 44.9205 101.728 45.2273 100.418 45.2273C99.2964 45.2273 98.304 44.9811 97.4403 44.4886C96.5843 43.9886 95.91 43.25 95.4176 42.2727C94.9328 41.2955 94.6903 40.0871 94.6903 38.6477V27.5455H98.0881V38.2386C98.0881 39.428 98.4176 40.375 99.0767 41.0795C99.7358 41.7841 100.592 42.1364 101.645 42.1364C102.281 42.1364 102.914 41.9773 103.543 41.6591C104.179 41.3409 104.705 40.8598 105.122 40.2159C105.546 39.572 105.755 38.7538 105.747 37.7614ZM121.869 27.5455V30.2727H112.335V27.5455H121.869ZM114.892 23.3636H118.29V39.875C118.29 40.5341 118.388 41.0303 118.585 41.3636C118.782 41.6894 119.036 41.9129 119.347 42.0341C119.665 42.1477 120.009 42.2045 120.381 42.2045C120.653 42.2045 120.892 42.1856 121.097 42.1477C121.301 42.1098 121.46 42.0795 121.574 42.0568L122.188 44.8636C121.991 44.9394 121.71 45.0152 121.347 45.0909C120.983 45.1742 120.528 45.2197 119.983 45.2273C119.089 45.2424 118.256 45.0833 117.483 44.75C116.71 44.4167 116.085 43.9015 115.608 43.2045C115.131 42.5076 114.892 41.6326 114.892 40.5795V23.3636ZM129.401 34.6364V45H126.003V21.7273H129.355V30.3864H129.571C129.98 29.447 130.605 28.7008 131.446 28.1477C132.287 27.5947 133.385 27.3182 134.741 27.3182C135.938 27.3182 136.984 27.5644 137.878 28.0568C138.779 28.5492 139.476 29.2841 139.969 30.2614C140.469 31.2311 140.719 32.4432 140.719 33.8977V45H137.321V34.3068C137.321 33.0265 136.991 32.0341 136.332 31.3295C135.673 30.6174 134.757 30.2614 133.582 30.2614C132.779 30.2614 132.06 30.4318 131.423 30.7727C130.795 31.1136 130.298 31.6136 129.935 32.2727C129.579 32.9242 129.401 33.7121 129.401 34.6364ZM152.776 45.3523C151.056 45.3523 149.575 44.9848 148.332 44.25C147.098 43.5076 146.143 42.4659 145.469 41.125C144.802 39.7765 144.469 38.197 144.469 36.3864C144.469 34.5985 144.802 33.0227 145.469 31.6591C146.143 30.2955 147.082 29.2311 148.287 28.4659C149.499 27.7008 150.916 27.3182 152.537 27.3182C153.522 27.3182 154.476 27.4811 155.401 27.8068C156.325 28.1326 157.154 28.6439 157.889 29.3409C158.624 30.0379 159.204 30.9432 159.628 32.0568C160.052 33.1629 160.264 34.5076 160.264 36.0909V37.2955H146.389V34.75H156.935C156.935 33.8561 156.753 33.0644 156.389 32.375C156.026 31.678 155.514 31.1288 154.855 30.7273C154.204 30.3258 153.438 30.125 152.56 30.125C151.605 30.125 150.772 30.3598 150.06 30.8295C149.355 31.2917 148.81 31.8977 148.423 32.6477C148.045 33.3902 147.855 34.197 147.855 35.0682V37.0568C147.855 38.2235 148.06 39.2159 148.469 40.0341C148.885 40.8523 149.465 41.4773 150.207 41.9091C150.95 42.3333 151.817 42.5455 152.81 42.5455C153.454 42.5455 154.041 42.4545 154.571 42.2727C155.101 42.0833 155.56 41.803 155.946 41.4318C156.332 41.0606 156.628 40.6023 156.832 40.0568L160.048 40.6364C159.791 41.5833 159.329 42.4129 158.662 43.125C158.003 43.8295 157.173 44.3788 156.173 44.7727C155.181 45.1591 154.048 45.3523 152.776 45.3523ZM167.432 34.6364V45H164.034V27.5455H167.295V30.3864H167.511C167.913 29.4621 168.542 28.7197 169.398 28.1591C170.261 27.5985 171.348 27.3182 172.659 27.3182C173.848 27.3182 174.89 27.5682 175.784 28.0682C176.678 28.5606 177.371 29.2955 177.864 30.2727C178.356 31.25 178.602 32.4583 178.602 33.8977V45H175.205V34.3068C175.205 33.0417 174.875 32.053 174.216 31.3409C173.557 30.6212 172.652 30.2614 171.5 30.2614C170.712 30.2614 170.011 30.4318 169.398 30.7727C168.792 31.1136 168.311 31.6136 167.955 32.2727C167.606 32.9242 167.432 33.7121 167.432 34.6364ZM191.307 27.5455V30.2727H181.773V27.5455H191.307ZM184.33 23.3636H187.727V39.875C187.727 40.5341 187.826 41.0303 188.023 41.3636C188.22 41.6894 188.473 41.9129 188.784 42.0341C189.102 42.1477 189.447 42.2045 189.818 42.2045C190.091 42.2045 190.33 42.1856 190.534 42.1477C190.739 42.1098 190.898 42.0795 191.011 42.0568L191.625 44.8636C191.428 44.9394 191.148 45.0152 190.784 45.0909C190.42 45.1742 189.966 45.2197 189.42 45.2273C188.527 45.2424 187.693 45.0833 186.92 44.75C186.148 44.4167 185.523 43.9015 185.045 43.2045C184.568 42.5076 184.33 41.6326 184.33 40.5795V23.3636ZM195.065 45V27.5455H198.463V45H195.065ZM196.781 24.8523C196.19 24.8523 195.683 24.6553 195.259 24.2614C194.842 23.8598 194.634 23.3826 194.634 22.8295C194.634 22.2689 194.842 21.7917 195.259 21.3977C195.683 20.9962 196.19 20.7955 196.781 20.7955C197.372 20.7955 197.876 20.9962 198.293 21.3977C198.717 21.7917 198.929 22.2689 198.929 22.8295C198.929 23.3826 198.717 23.8598 198.293 24.2614C197.876 24.6553 197.372 24.8523 196.781 24.8523ZM210.386 45.3523C208.697 45.3523 207.242 44.9697 206.023 44.2045C204.811 43.4318 203.879 42.3674 203.227 41.0114C202.576 39.6553 202.25 38.1023 202.25 36.3523C202.25 34.5795 202.583 33.0152 203.25 31.6591C203.917 30.2955 204.856 29.2311 206.068 28.4659C207.28 27.7008 208.708 27.3182 210.352 27.3182C211.678 27.3182 212.86 27.5644 213.898 28.0568C214.936 28.5417 215.773 29.2235 216.409 30.1023C217.053 30.9811 217.436 32.0076 217.557 33.1818H214.25C214.068 32.3636 213.652 31.6591 213 31.0682C212.356 30.4773 211.492 30.1818 210.409 30.1818C209.462 30.1818 208.633 30.4318 207.92 30.9318C207.216 31.4242 206.667 32.1288 206.273 33.0455C205.879 33.9545 205.682 35.0303 205.682 36.2727C205.682 37.5455 205.875 38.6439 206.261 39.5682C206.648 40.4924 207.193 41.2083 207.898 41.7159C208.61 42.2235 209.447 42.4773 210.409 42.4773C211.053 42.4773 211.636 42.3598 212.159 42.125C212.689 41.8826 213.133 41.5379 213.489 41.0909C213.852 40.6439 214.106 40.1061 214.25 39.4773H217.557C217.436 40.6061 217.068 41.6136 216.455 42.5C215.841 43.3864 215.019 44.0833 213.989 44.5909C212.966 45.0985 211.765 45.3523 210.386 45.3523ZM228.375 26.2955V21.7273H248.045V26.2955H240.989V45H235.443V26.2955H228.375ZM253.338 45.2955C252.224 45.2955 251.236 45.1098 250.372 44.7386C249.516 44.3598 248.838 43.7917 248.338 43.0341C247.846 42.2689 247.599 41.3106 247.599 40.1591C247.599 39.1894 247.77 38.3712 248.111 37.7045C248.452 37.0379 248.921 36.4962 249.52 36.0795C250.118 35.6629 250.808 35.3485 251.588 35.1364C252.368 34.9167 253.202 34.7689 254.088 34.6932C255.08 34.6023 255.88 34.5076 256.486 34.4091C257.092 34.303 257.531 34.1553 257.804 33.9659C258.084 33.7689 258.224 33.4924 258.224 33.1364V33.0795C258.224 32.4962 258.024 32.0455 257.622 31.7273C257.221 31.4091 256.679 31.25 255.997 31.25C255.262 31.25 254.671 31.4091 254.224 31.7273C253.777 32.0455 253.493 32.4848 253.372 33.0455L248.247 32.8636C248.399 31.803 248.789 30.8561 249.418 30.0227C250.054 29.1818 250.925 28.5227 252.031 28.0455C253.145 27.5606 254.482 27.3182 256.043 27.3182C257.156 27.3182 258.183 27.4508 259.122 27.7159C260.062 27.9735 260.88 28.3523 261.577 28.8523C262.274 29.3447 262.812 29.9508 263.19 30.6705C263.577 31.3902 263.77 32.2121 263.77 33.1364V45H258.543V42.5682H258.406C258.096 43.1591 257.698 43.6591 257.213 44.0682C256.736 44.4773 256.171 44.7841 255.52 44.9886C254.876 45.1932 254.149 45.2955 253.338 45.2955ZM255.054 41.6591C255.652 41.6591 256.19 41.5379 256.668 41.2955C257.152 41.053 257.539 40.7197 257.827 40.2955C258.115 39.8636 258.259 39.3636 258.259 38.7955V37.1364C258.099 37.2197 257.906 37.2955 257.679 37.3636C257.459 37.4318 257.217 37.4962 256.952 37.5568C256.687 37.6174 256.414 37.6705 256.134 37.7159C255.853 37.7614 255.584 37.803 255.327 37.8409C254.804 37.9242 254.357 38.053 253.986 38.2273C253.622 38.4015 253.342 38.6288 253.145 38.9091C252.955 39.1818 252.861 39.5076 252.861 39.8864C252.861 40.4621 253.065 40.9015 253.474 41.2045C253.891 41.5076 254.418 41.6591 255.054 41.6591ZM282.406 32.875L277.304 33.0114C277.251 32.6477 277.107 32.3258 276.872 32.0455C276.637 31.7576 276.33 31.5341 275.952 31.375C275.58 31.2083 275.149 31.125 274.656 31.125C274.012 31.125 273.463 31.2538 273.009 31.5114C272.562 31.7689 272.342 32.1174 272.349 32.5568C272.342 32.8977 272.478 33.1932 272.759 33.4432C273.046 33.6932 273.558 33.8939 274.293 34.0455L277.656 34.6818C279.399 35.0152 280.694 35.5682 281.543 36.3409C282.399 37.1136 282.83 38.1364 282.838 39.4091C282.83 40.6061 282.474 41.6477 281.77 42.5341C281.073 43.4205 280.118 44.1098 278.906 44.6023C277.694 45.0871 276.308 45.3295 274.747 45.3295C272.255 45.3295 270.289 44.8182 268.849 43.7955C267.418 42.7652 266.599 41.3864 266.395 39.6591L271.884 39.5227C272.005 40.1591 272.319 40.6439 272.827 40.9773C273.334 41.3106 273.982 41.4773 274.77 41.4773C275.482 41.4773 276.062 41.3447 276.509 41.0795C276.955 40.8144 277.183 40.4621 277.19 40.0227C277.183 39.6288 277.009 39.3144 276.668 39.0795C276.327 38.8371 275.793 38.6477 275.065 38.5114L272.02 37.9318C270.27 37.6136 268.967 37.0265 268.111 36.1705C267.255 35.3068 266.83 34.2083 266.838 32.875C266.83 31.7083 267.141 30.7121 267.77 29.8864C268.399 29.053 269.293 28.4167 270.452 27.9773C271.611 27.5379 272.978 27.3182 274.554 27.3182C276.918 27.3182 278.781 27.8144 280.145 28.8068C281.509 29.7917 282.262 31.1477 282.406 32.875ZM295.426 27.5455V31.6364H284.415V27.5455H295.426ZM286.722 23.3636H292.278V39.5114C292.278 39.8523 292.331 40.1288 292.438 40.3409C292.551 40.5455 292.714 40.6932 292.926 40.7841C293.138 40.8674 293.392 40.9091 293.688 40.9091C293.9 40.9091 294.123 40.8902 294.358 40.8523C294.6 40.8068 294.782 40.7689 294.903 40.7386L295.744 44.75C295.479 44.8258 295.104 44.9205 294.619 45.0341C294.142 45.1477 293.57 45.2197 292.903 45.25C291.6 45.3106 290.483 45.1591 289.551 44.7955C288.627 44.4242 287.919 43.8485 287.426 43.0682C286.941 42.2879 286.706 41.3068 286.722 40.125V23.3636ZM306.233 45.3295C304.407 45.3295 302.831 44.9697 301.506 44.25C300.188 43.5227 299.172 42.4886 298.46 41.1477C297.756 39.7992 297.403 38.197 297.403 36.3409C297.403 34.5379 297.759 32.9621 298.472 31.6136C299.184 30.2576 300.188 29.2045 301.483 28.4545C302.778 27.697 304.305 27.3182 306.062 27.3182C307.305 27.3182 308.441 27.5114 309.472 27.8977C310.502 28.2841 311.392 28.8561 312.142 29.6136C312.892 30.3712 313.475 31.3068 313.892 32.4205C314.309 33.5265 314.517 34.7955 314.517 36.2273V37.6136H299.347V34.3864H309.347C309.339 33.7955 309.199 33.2689 308.926 32.8068C308.653 32.3447 308.278 31.9848 307.801 31.7273C307.331 31.4621 306.79 31.3295 306.176 31.3295C305.555 31.3295 304.998 31.4697 304.506 31.75C304.013 32.0227 303.623 32.3977 303.335 32.875C303.047 33.3447 302.896 33.8788 302.881 34.4773V37.7614C302.881 38.4735 303.021 39.0985 303.301 39.6364C303.581 40.1667 303.979 40.5795 304.494 40.875C305.009 41.1705 305.623 41.3182 306.335 41.3182C306.828 41.3182 307.275 41.25 307.676 41.1136C308.078 40.9773 308.422 40.7765 308.71 40.5114C308.998 40.2462 309.214 39.9205 309.358 39.5341L314.46 39.6818C314.248 40.8258 313.782 41.822 313.062 42.6705C312.35 43.5114 311.415 44.1667 310.256 44.6364C309.097 45.0985 307.756 45.3295 306.233 45.3295Z" fill="#FB0000"/>
<path d="M45.8696 39.8103H44.5352C43.9539 31.7131 37.4512 25.072 28.9955 23.6348C29.2227 23.1837 29.3587 22.5477 29.3587 22.0179C29.3587 20.0745 27.6495 18.4934 25.5485 18.4934C23.4476 18.4934 21.7383 20.0745 21.7383 22.0179C21.7383 22.5477 21.8744 23.1837 22.1016 23.6348C13.6459 25.072 6.97378 31.7131 6.39264 39.8103H5.05818C4.35619 39.8103 3.78809 40.3044 3.78809 40.9538C3.78809 41.6032 4.3561 42.1287 5.05818 42.1287H45.8696C46.5716 42.1287 47.1397 41.6032 47.1397 40.9538C47.1397 40.3044 46.5716 39.8103 45.8696 39.8103ZM25.5485 23.3311C24.8478 23.3311 24.2784 22.6662 24.2784 22.0179C24.2784 21.3697 24.8478 20.8431 25.5485 20.8431C26.2493 20.8431 26.8186 21.3697 26.8186 22.0179C26.8186 22.6662 26.2493 23.3311 25.5485 23.3311ZM7.59836 46.828C6.88706 46.828 6.32827 47.3449 6.32827 48.0029V57.42C6.32827 58.0778 6.88706 58.5948 7.59836 58.5948H11.4086V46.828H7.59836ZM43.1805 45.8222C42.1883 44.9044 40.581 44.9044 39.5888 45.8221L32.3157 52.5186C31.4045 53.3615 30.2055 53.8301 28.9258 53.877H25.4471C24.7505 53.877 24.177 53.3976 24.177 52.7021C24.177 52.0065 24.7504 51.5273 25.4471 51.5273H29.3588C30.7559 51.5273 31.8989 50.4699 31.8989 49.1776C31.8989 47.8853 30.7559 46.8593 29.3588 46.8593H26.8187C26.373 46.8593 26.0369 46.874 25.6757 46.5773C25.2253 46.2126 24.7359 45.7578 24.2786 45.4886C21.7399 43.8309 18.0686 43.4285 15.007 44.9083C14.6878 45.0627 14.4205 45.295 14.2339 45.5801C14.0473 45.8651 13.9487 46.1919 13.9487 46.5251V58.5948C30.1039 58.6149 28.6257 58.5947 28.7225 58.5948C31.4363 58.5948 33.9888 57.6174 35.9075 55.8413L43.1806 49.1135C44.1728 48.1957 44.1728 46.7401 43.1805 45.8222Z" fill="#FB0000"/>
<path d="M24.5877 0.449605L21.9891 4.3847L17.0921 5.42812C16.9216 5.46351 16.7639 5.53929 16.6345 5.64804C16.5051 5.75679 16.4085 5.89478 16.3542 6.04847C16.2998 6.20216 16.2896 6.36627 16.3245 6.52472C16.3594 6.68317 16.4382 6.83052 16.5532 6.9523L19.8409 10.428L19.4136 15.0006C19.4 15.163 19.4319 15.326 19.5063 15.4737C19.5807 15.6214 19.6951 15.7488 19.8383 15.8437C19.9815 15.9386 20.1487 15.9977 20.3239 16.0153C20.499 16.0329 20.6761 16.0085 20.838 15.9443L25.4654 14.1566L30.0929 15.9443C30.2548 16.0085 30.4319 16.0329 30.607 16.0153C30.7821 15.9977 30.9494 15.9386 31.0926 15.8437C31.2358 15.7488 31.3501 15.6214 31.4246 15.4737C31.499 15.326 31.5309 15.163 31.5173 15.0006L31.0861 10.428L34.3777 6.9523C34.4927 6.83052 34.5715 6.68317 34.6064 6.52472C34.6413 6.36627 34.631 6.20216 34.5767 6.04847C34.5223 5.89478 34.4257 5.75679 34.2964 5.64804C34.167 5.53929 34.0093 5.46351 33.8387 5.42812L28.938 4.3847L26.3432 0.449605C26.2501 0.312002 26.1206 0.198551 25.9671 0.119906C25.8136 0.04126 25.6409 0 25.4654 0C25.2899 0 25.1173 0.04126 24.9638 0.119906C24.8102 0.198551 24.6808 0.312002 24.5877 0.449605ZM6.24342 9.8689L4.35702 12.668L0.799815 13.4158C0.628419 13.4473 0.469035 13.5201 0.337751 13.6267C0.206467 13.7334 0.10793 13.8702 0.0520861 14.0234C-0.00375725 14.1766 -0.0149304 14.3406 0.0196948 14.4991C0.0543201 14.6575 0.133518 14.8047 0.249294 14.9258L2.64387 17.4008L2.33588 20.6628C2.26659 21.3608 3.04809 21.8665 3.76416 21.5958L7.12888 20.3245L10.4936 21.5958C11.2097 21.8665 11.995 21.3608 11.9257 20.6628L11.6177 17.4008L14.0085 14.9258C14.1242 14.8049 14.2035 14.658 14.2383 14.4998C14.2732 14.3416 14.2623 14.1777 14.2069 14.0246C14.1515 13.8715 14.0534 13.7347 13.9226 13.6278C13.7918 13.5209 13.6329 13.4478 13.4618 13.4158L9.90458 12.668L8.01818 9.8689C7.92098 9.72673 7.78529 9.61053 7.62457 9.53182C7.46385 9.45312 7.28368 9.41463 7.10193 9.4202C6.92986 9.4234 6.76134 9.46607 6.61149 9.54439C6.46165 9.62271 6.33518 9.73421 6.24342 9.8689ZM42.9127 9.8689L41.0263 12.668L37.4691 13.4158C37.2977 13.4473 37.1383 13.5201 37.007 13.6267C36.8758 13.7334 36.7772 13.8702 36.7214 14.0234C36.6655 14.1766 36.6544 14.3406 36.689 14.4991C36.7236 14.6575 36.8028 14.8047 36.9186 14.9258L39.3055 17.4008L39.0013 20.6628C38.9359 21.3608 39.7174 21.8665 40.4334 21.5958L43.7982 20.3245L47.1629 21.5958C47.8789 21.8665 48.6604 21.3608 48.595 20.6628L48.2832 17.4008L50.6777 14.9258C50.7935 14.8049 50.8728 14.658 50.9076 14.4998C50.9425 14.3416 50.9316 14.1777 50.8762 14.0246C50.8208 13.8715 50.7227 13.7347 50.5919 13.6278C50.4611 13.5209 50.3021 13.4478 50.1311 13.4158L46.57 12.668L44.6836 9.8689C44.5892 9.73061 44.4585 9.61668 44.3037 9.53772C44.1489 9.45877 43.975 9.41736 43.7982 9.41736C43.6214 9.41736 43.4474 9.45877 43.2926 9.53772C43.1378 9.61668 43.0071 9.73061 42.9127 9.8689Z" fill="#FB0000"/>
</svg>
