<svg width="46" height="46" viewBox="0 0 46 46" fill="none" xmlns="http://www.w3.org/2000/svg">
<path d="M41.1511 19.3869C40.8861 19.1257 40.4594 19.1287 40.1983 19.3937C39.937 19.6587 39.9401 20.0854 40.2051 20.3466C40.3489 20.4884 40.4886 20.6332 40.6259 20.7796C40.5876 20.7475 40.5487 20.7164 40.5097 20.6865C40.0003 20.2981 39.3924 20.0434 38.798 19.9694C38.7835 19.9676 38.7694 19.9664 38.755 19.9647C38.9069 19.663 38.9605 19.4552 38.9666 19.4299C38.9699 19.4162 38.9728 19.4024 38.9753 19.3886C39.0576 18.9264 39.0406 18.4618 38.9284 18.0531C38.873 17.8407 38.7956 17.631 38.6987 17.4296C38.6964 17.4248 38.6939 17.4199 38.6915 17.4151C38.5924 17.2214 38.4688 17.0302 38.3233 16.8456C38.2533 16.7571 38.1787 16.6713 38.1015 16.5907C38.0982 16.5871 38.0948 16.5836 38.0913 16.5802C38.0153 16.5041 37.9321 16.4295 37.8362 16.3514C37.6625 16.2104 37.4759 16.0869 37.2817 15.984C37.2768 15.9815 37.2721 15.9791 37.2673 15.9767C36.8552 15.771 36.4208 15.6578 35.973 15.6399C35.622 15.6276 35.3472 15.3588 35.3204 15.0066C35.3054 14.7844 35.2667 14.5619 35.2053 14.3453C35.2043 14.3418 35.2033 14.3384 35.2022 14.3349C35.1404 14.1294 35.0522 13.922 34.9441 13.7256C34.7406 13.3448 34.438 12.9985 34.0448 12.6966C34.0398 12.6927 34.0347 12.6889 34.0296 12.6853C33.2559 12.125 32.3108 11.9281 31.4349 12.1448C31.0765 12.2232 30.7402 12.0452 30.6147 11.7067C30.4556 11.2849 30.206 10.906 29.8729 10.5806C29.8683 10.5761 29.8636 10.5717 29.859 10.5674C29.5018 10.2379 29.1074 10.0008 28.6866 9.86255C28.2637 9.71125 27.8052 9.65573 27.3254 9.69778C27.3216 9.69805 27.3179 9.69841 27.3142 9.69886C26.8648 9.74557 26.4216 9.89427 26.0251 10.1335C25.7185 10.3239 25.3364 10.2578 25.1016 9.9789C24.9541 9.7993 24.7904 9.63875 24.6152 9.50165C24.6116 9.49877 24.6079 9.49599 24.6042 9.4932C24.4277 9.36086 24.2342 9.24497 24.029 9.14874C23.9282 9.10158 23.8234 9.05845 23.7174 9.02081C23.7137 9.01946 23.71 9.0182 23.7062 9.01694C23.5803 8.97463 23.4602 8.94687 23.3662 8.92665C23.1453 8.88029 22.9172 8.85442 22.6881 8.84974C22.6788 8.84956 22.6695 8.84956 22.6602 8.84974C22.4312 8.85451 22.203 8.88038 21.9786 8.92746C21.8879 8.94695 21.7676 8.97481 21.6418 9.01712C21.6382 9.01838 21.6345 9.01964 21.6309 9.0209C21.5246 9.05863 21.4197 9.10176 21.3193 9.14892C21.1143 9.24497 20.9208 9.36086 20.7442 9.4932C20.7404 9.49608 20.7366 9.49895 20.7328 9.50192C20.5577 9.63902 20.394 9.79957 20.2518 9.97279C20.0118 10.258 19.6298 10.3242 19.3157 10.1292C18.9265 9.89445 18.4833 9.74575 18.034 9.69904C18.0303 9.69868 18.0266 9.69832 18.0228 9.69796C17.5425 9.656 17.0845 9.71152 16.6616 9.86273C16.2407 10.001 15.8463 10.2382 15.4891 10.5677C15.4845 10.572 15.4798 10.5764 15.4753 10.5809C15.1421 10.9063 14.8925 11.2852 14.732 11.7109C14.608 12.0457 14.2716 12.2236 13.9131 12.145C13.0373 11.9286 12.0923 12.1254 11.3187 12.6856C11.3135 12.6894 11.3085 12.6931 11.3035 12.6969C10.9102 12.9989 10.6077 13.3452 10.4042 13.7261C10.3849 13.7621 10.3698 13.7993 10.3577 13.8369C7.91252 14.3842 5.98214 16.3912 5.58809 18.9114L4.99746 18.8333C4.40036 18.7542 3.75304 18.9976 3.26689 19.4838C2.78147 19.9694 2.5388 20.6151 2.61786 21.2112L2.79926 22.5801C1.06366 23.7163 0 25.6632 0 27.7498C0 29.7754 0.978666 31.6451 2.63035 32.8044C3.36213 35.3121 5.68234 37.1502 8.4258 37.1502H34.1533C34.5255 37.1502 34.8271 36.8485 34.8271 36.4764C34.8271 36.1042 34.5255 35.8025 34.1533 35.8025H8.42571C5.8401 35.8025 3.7365 33.7018 3.7365 31.1196C3.7365 22.9701 10.3032 16.2085 18.3747 16.0469C22.4288 15.9656 26.2577 17.4821 29.1495 20.3166C32.037 23.1467 33.6271 26.9303 33.6271 30.9703C33.6271 32.555 34.2279 34.0018 35.2131 35.0967C35.2399 35.1328 35.2706 35.1666 35.3054 35.1977C35.3081 35.2001 35.311 35.2022 35.3138 35.2045C36.4427 36.401 38.0417 37.15 39.8136 37.15C43.2248 37.15 46 34.3778 46 30.9702C45.9999 26.5828 44.2779 22.469 41.1511 19.3869ZM2.39325 30.7483C1.72446 29.9074 1.34765 28.8587 1.34765 27.7498C1.34765 26.3452 1.96443 25.0211 3.00257 24.1128L3.04713 24.4493C3.09107 24.7808 3.23167 25.0717 3.44496 25.2942C2.79396 27.0207 2.43503 28.8602 2.39325 30.7483ZM4.27431 23.4509L3.95393 21.0338C3.9303 20.8561 4.03479 20.6216 4.22004 20.4362C4.40593 20.2503 4.64186 20.1454 4.82083 20.169L6.37045 20.3739C5.55099 21.3262 4.8494 22.358 4.27431 23.4509ZM7.51847 19.1663L6.92389 19.0877C7.29952 16.7837 9.32028 15.0346 11.6991 15.0346C12.4022 15.0346 13.085 15.1846 13.7122 15.4723C11.419 16.2108 9.30779 17.463 7.51847 19.1663ZM18.3477 14.6996C17.837 14.7099 17.3304 14.7445 16.8287 14.8015L17.6182 13.7723C17.7278 13.6295 17.9684 13.5372 18.2313 13.5372C18.4944 13.5372 18.735 13.6295 18.8445 13.7724L19.5715 14.7202C19.1662 14.6985 18.758 14.6916 18.3477 14.6996ZM19.9139 12.9518C19.5477 12.4744 18.9187 12.1893 18.2313 12.1893C17.5441 12.1893 16.9151 12.4744 16.5488 12.9518L15.168 14.7519C14.2829 14.1511 13.2713 13.7946 12.2104 13.708C12.6415 13.4331 13.1396 13.3405 13.5945 13.4543C13.5995 13.4556 13.6045 13.4567 13.6095 13.4579C14.633 13.6895 15.6358 13.1513 15.9944 12.1823C16.0824 11.9489 16.2222 11.7368 16.4102 11.5515C16.6243 11.3556 16.8523 11.2175 17.0881 11.141C17.0953 11.1387 17.1024 11.1363 17.1096 11.1337C17.3448 11.0485 17.6181 11.0161 17.9003 11.04C18.152 11.0669 18.4005 11.1509 18.6124 11.2786C19.4881 11.8222 20.6114 11.6382 21.288 10.8345C21.3715 10.7329 21.4623 10.643 21.5581 10.5674C21.6598 10.4919 21.7719 10.4252 21.8916 10.369C21.9511 10.3411 22.0133 10.3155 22.0765 10.2927C22.1375 10.2726 22.2075 10.2567 22.2587 10.2456C22.3936 10.2174 22.5333 10.2012 22.6743 10.1974C22.8151 10.2012 22.9548 10.2173 23.0861 10.2448C23.1665 10.2622 23.2242 10.277 23.2719 10.2927C23.3351 10.3154 23.3973 10.3411 23.4569 10.3689C23.5766 10.4251 23.6887 10.4918 23.7902 10.5673C23.886 10.6428 23.9768 10.7327 24.0654 10.8406C24.737 11.638 25.8601 11.8223 26.7286 11.2829C26.9477 11.1508 27.1962 11.0668 27.4479 11.0398C27.7303 11.016 28.0034 11.0484 28.2388 11.1336C28.2459 11.1361 28.2531 11.1386 28.2603 11.1409C28.496 11.2174 28.7241 11.3555 28.9382 11.5513C29.126 11.7366 29.2658 11.9487 29.3524 12.1784C29.7128 13.1513 30.7165 13.6893 31.7387 13.4578C31.7437 13.4567 31.7487 13.4555 31.7537 13.4542C32.2421 13.332 32.7802 13.4474 33.2318 13.7714C33.468 13.9541 33.6443 14.1524 33.7595 14.3681C33.825 14.4871 33.8757 14.6048 33.9103 14.7181C33.9452 14.8428 33.9673 14.9704 33.9762 15.1033C34.0555 16.1408 34.8935 16.9506 35.9226 16.9867C36.1727 16.9967 36.4203 17.0614 36.6583 17.179C36.7728 17.2401 36.8834 17.3137 36.9863 17.3973C37.0429 17.4434 37.0908 17.486 37.1326 17.5274C37.1792 17.5763 37.2242 17.6284 37.2658 17.6809C37.3544 17.7934 37.4292 17.908 37.488 18.0216C37.5457 18.1424 37.5915 18.2676 37.6266 18.4015C37.6859 18.6177 37.6952 18.866 37.6538 19.1213C37.6029 19.2844 37.206 20.3743 35.5556 21.03C34.9782 20.696 34.3404 20.4527 33.66 20.3195L34.0509 18.8625C34.2379 18.1655 34.0449 17.4444 33.5346 16.9338C33.0235 16.4225 32.3013 16.229 31.6027 16.4157L29.8478 16.8853C29.1959 14.1077 26.7188 12.1266 23.8269 12.1266C22.5073 12.1266 21.2511 12.5361 20.1887 13.31L19.9139 12.9518ZM27.7593 17.4443C27.7569 17.4449 27.7546 17.4458 27.7521 17.4464C25.844 16.1632 23.6974 15.3078 21.4279 14.9258L21.0092 14.38C21.8338 13.7878 22.8058 13.4744 23.8268 13.4744C26.1027 13.4744 28.0507 15.0418 28.5459 17.2338L27.7593 17.4443ZM32.7492 18.5135L31.9451 21.5108C31.3968 20.7479 30.7784 20.0265 30.0927 19.3543C29.7788 19.0466 29.4545 18.7539 29.1212 18.475L31.951 17.7177C32.2792 17.6297 32.5012 17.8064 32.5812 17.8866C32.6609 17.9663 32.8368 18.187 32.7492 18.5135ZM32.9057 23.0184C32.9524 22.9165 32.9916 22.8107 33.0211 22.7009L33.31 21.624C35.6022 22.0272 37.3022 24.0312 37.3022 26.3822C37.3022 28.0755 36.4005 29.6476 34.9681 30.5164C34.8956 27.8463 34.1836 25.2901 32.9057 23.0184ZM36.1429 33.6392C36.139 33.6406 36.1351 33.6421 36.1312 33.6435C36.0402 33.6781 35.9527 33.7184 35.8683 33.7633C35.4936 33.2371 35.2215 32.6336 35.0819 31.9812C35.0854 31.9796 35.0892 31.9785 35.0928 31.9768C37.2536 30.9619 38.6496 28.7659 38.6496 26.3823C38.6496 24.6565 37.9325 23.0774 36.7678 21.9471C37.1307 21.7471 37.4349 21.5286 37.691 21.3067C37.9824 21.2652 38.29 21.2646 38.6313 21.3069C38.9929 21.3517 39.3696 21.512 39.6928 21.7586C39.7139 21.7746 39.7347 21.7912 39.755 21.8082C39.8524 21.8935 39.9433 21.9902 40.0248 22.0952C40.0653 22.1476 40.1038 22.2022 40.1391 22.2577C40.1708 22.3106 40.201 22.3682 40.2315 22.4325C40.2904 22.5575 40.3374 22.6873 40.3714 22.8181C40.3992 22.9355 40.4154 23.0651 40.4195 23.1974C40.4227 23.3457 40.4141 23.4646 40.3919 23.5738C40.3663 23.7019 40.3276 23.8268 40.278 23.9431C40.1814 24.1672 40.1287 24.4057 40.1175 24.6652C40.1055 24.8868 40.1332 25.1093 40.2048 25.3648C40.2601 25.5728 40.3586 25.7817 40.5037 25.9999C40.6347 26.1994 40.807 26.3799 41.0157 26.5365C41.1112 26.6109 41.201 26.6998 41.2831 26.8008C41.3526 26.893 41.4167 27.0037 41.4789 27.1387C41.5261 27.2558 41.5636 27.3884 41.5907 27.5334C41.6067 27.6709 41.6199 27.8277 41.606 27.9649C41.5907 28.1043 41.5686 28.2645 41.5199 28.3952C41.518 28.4001 41.5163 28.405 41.5146 28.4099C41.4899 28.4813 41.462 28.5515 41.4317 28.6184C41.4034 28.6764 41.3643 28.7396 41.333 28.789C41.2917 28.8524 41.2542 28.9048 41.2185 28.9487C41.1742 28.9986 41.1278 29.0459 41.081 29.0888C41.0325 29.1332 40.9859 29.1714 40.9392 29.2054C40.8871 29.2399 40.8334 29.2714 40.7778 29.2998C40.5714 29.4062 40.3827 29.5445 40.201 29.7226C40.1984 29.7253 40.1956 29.728 40.1929 29.7306C40.1078 29.817 40.0303 29.9111 39.9628 30.0106C39.8888 30.1147 39.8321 30.2082 39.7853 30.3035C39.7297 30.4138 39.6922 30.5203 39.6599 30.6191C39.621 30.734 39.5925 30.8544 39.5751 30.9769C39.5746 30.981 39.574 30.985 39.5735 30.9892C39.5418 31.2455 39.5464 31.4798 39.5871 31.7039C39.5986 31.7687 39.6061 31.8293 39.6092 31.8843C39.6108 31.9456 39.6086 32.0086 39.6032 32.0707C39.5971 32.1386 39.5881 32.2024 39.5765 32.2606C39.5606 32.3243 39.541 32.3895 39.5162 32.4592C39.4306 32.707 39.2669 32.9496 39.0423 33.1611C38.9346 33.2575 38.8156 33.3433 38.6884 33.4164C38.5624 33.48 38.4298 33.5417 38.308 33.5707C38.3032 33.5719 38.2983 33.5732 38.2935 33.5744C38.0418 33.6405 37.7828 33.6417 37.5446 33.5777C37.3173 33.5126 37.0825 33.4867 36.8267 33.4988C36.5427 33.5066 36.3008 33.5825 36.1429 33.6392ZM39.8135 35.8026C38.7314 35.8026 37.7312 35.446 36.9244 34.8444C37.0179 34.8426 37.0992 34.8516 37.1757 34.8738C37.1793 34.8749 37.1831 34.876 37.1869 34.877C37.6516 35.0033 38.1503 35.0042 38.6291 34.8797C38.8891 34.8165 39.1203 34.7085 39.3125 34.611C39.3215 34.6065 39.3304 34.6017 39.3392 34.5968C39.5585 34.4728 39.7638 34.3252 39.9493 34.1581C39.9524 34.1553 39.9556 34.1524 39.9587 34.1494C40.3454 33.7875 40.633 33.3551 40.7883 32.9048C40.828 32.7931 40.8619 32.6794 40.8893 32.5667C40.891 32.5596 40.8925 32.5526 40.894 32.5455C40.9172 32.434 40.9346 32.3148 40.9459 32.1898C40.9561 32.0722 40.9597 31.954 40.9565 31.8385C40.9563 31.8334 40.9561 31.8284 40.9558 31.8234C40.9501 31.71 40.936 31.5899 40.9135 31.4647C40.8972 31.3754 40.8964 31.2787 40.9104 31.161C40.9162 31.122 40.9253 31.0844 40.9373 31.0492C40.9384 31.0461 40.9393 31.0431 40.9404 31.0399C40.9565 30.9903 40.9736 30.9399 40.9896 30.9085C40.9912 30.9054 40.9928 30.9022 40.9944 30.8991C41.0088 30.8693 41.0317 30.8327 41.0644 30.787C41.0684 30.7815 41.0723 30.7759 41.076 30.7702C41.0972 30.7387 41.1218 30.7085 41.1491 30.6804C41.2315 30.6003 41.312 30.5405 41.3938 30.4984C41.4977 30.4452 41.6004 30.3846 41.6989 30.3184C41.7046 30.3146 41.7102 30.3108 41.7157 30.3068C41.8079 30.2408 41.9003 30.1657 41.9908 30.0829C42.0764 30.0045 42.1597 29.9193 42.2383 29.8298C42.2427 29.8248 42.2471 29.8197 42.2515 29.8146C42.3221 29.7291 42.3913 29.6338 42.4667 29.5178C42.524 29.4278 42.5906 29.319 42.65 29.1952C42.6519 29.1912 42.6538 29.1872 42.6557 29.1831C42.7035 29.0782 42.7473 28.9687 42.7859 28.8576C42.8846 28.5895 42.9232 28.3183 42.9465 28.1063C42.9751 27.8249 42.951 27.556 42.9267 27.3532C42.9251 27.3402 42.9232 27.3272 42.921 27.3143C42.876 27.0634 42.8087 26.828 42.7209 26.6148C42.7178 26.6073 42.7146 26.5998 42.7113 26.5924C42.6036 26.3554 42.4851 26.1538 42.3493 25.976C42.346 25.9716 42.3426 25.9672 42.3391 25.9629C42.1883 25.7754 42.0193 25.6087 41.837 25.4676C41.8338 25.4651 41.8306 25.4626 41.8274 25.4602C41.7436 25.3978 41.6757 25.3286 41.6284 25.2567C41.5635 25.1591 41.5239 25.0808 41.5073 25.0172C41.5061 25.013 41.505 25.0087 41.5038 25.0045C41.4725 24.8936 41.4598 24.8089 41.464 24.7308C41.4685 24.6279 41.4845 24.5496 41.5168 24.4746C41.6039 24.2709 41.6701 24.0565 41.7134 23.8399C41.755 23.6355 41.7726 23.4159 41.7671 23.1623C41.7601 22.9299 41.7311 22.7064 41.681 22.498C41.6801 22.4946 41.6793 22.4913 41.6785 22.488C41.6235 22.2733 41.5469 22.0614 41.4507 21.8569C41.3992 21.7481 41.3468 21.6498 41.2907 21.5565C41.2881 21.5522 41.2854 21.5478 41.2827 21.5435C41.2627 21.5118 41.2413 21.4809 41.2201 21.4497C43.4431 24.1208 44.6523 27.4495 44.6523 30.9705C44.6523 33.635 42.4815 35.8026 39.8135 35.8026Z" fill="#8F6363"/>
<path d="M12.4966 23.5841C12.8687 23.5841 13.1704 23.2824 13.1704 22.9103C13.1704 22.5381 12.8687 22.2365 12.4966 22.2365C12.1244 22.2365 11.8228 22.5381 11.8228 22.9103C11.8228 23.2824 12.1244 23.5841 12.4966 23.5841Z" fill="#8F6363"/>
<path d="M9.26221 26.2794C9.63435 26.2794 9.93603 25.9777 9.93603 25.6056C9.93603 25.2334 9.63435 24.9318 9.26221 24.9318C8.89006 24.9318 8.58838 25.2334 8.58838 25.6056C8.58838 25.9777 8.89006 26.2794 9.26221 26.2794Z" fill="#8F6363"/>
<path d="M14.6528 28.4357C15.025 28.4357 15.3267 28.134 15.3267 27.7618C15.3267 27.3897 15.025 27.088 14.6528 27.088C14.2807 27.088 13.979 27.3897 13.979 27.7618C13.979 28.134 14.2807 28.4357 14.6528 28.4357Z" fill="#8F6363"/>
<path d="M9.35205 23.045C9.72419 23.045 10.0259 22.7434 10.0259 22.3712C10.0259 21.9991 9.72419 21.6974 9.35205 21.6974C8.97991 21.6974 8.67822 21.9991 8.67822 22.3712C8.67822 22.7434 8.97991 23.045 9.35205 23.045Z" fill="#8F6363"/>
<path d="M17.4375 20.3498C17.8096 20.3498 18.1113 20.0481 18.1113 19.676C18.1113 19.3038 17.8096 19.0021 17.4375 19.0021C17.0654 19.0021 16.7637 19.3038 16.7637 19.676C16.7637 20.0481 17.0654 20.3498 17.4375 20.3498Z" fill="#8F6363"/>
<path d="M20.1328 26.6388C20.505 26.6388 20.8066 26.3371 20.8066 25.965C20.8066 25.5928 20.505 25.2911 20.1328 25.2911C19.7607 25.2911 19.459 25.5928 19.459 25.965C19.459 26.3371 19.7607 26.6388 20.1328 26.6388Z" fill="#8F6363"/>
<path d="M22.8281 22.1466C23.2003 22.1466 23.5019 21.8449 23.5019 21.4728C23.5019 21.1006 23.2003 20.799 22.8281 20.799C22.456 20.799 22.1543 21.1006 22.1543 21.4728C22.1543 21.8449 22.456 22.1466 22.8281 22.1466Z" fill="#8F6363"/>
<path d="M29.1172 27.5372C29.4893 27.5372 29.791 27.2355 29.791 26.8634C29.791 26.4913 29.4893 26.1896 29.1172 26.1896C28.745 26.1896 28.4434 26.4913 28.4434 26.8634C28.4434 27.2355 28.745 27.5372 29.1172 27.5372Z" fill="#8F6363"/>
</svg>
