<svg width="12" height="12" viewBox="0 0 12 12" fill="none" xmlns="http://www.w3.org/2000/svg">
<path fill-rule="evenodd" clip-rule="evenodd" d="M5.994 0.166656C2.774 0.166656 0.166504 2.77999 0.166504 5.99999C0.166504 9.21999 2.774 11.8333 5.994 11.8333C9.21984 11.8333 11.8332 9.21999 11.8332 5.99999C11.8332 2.77999 9.21984 0.166656 5.994 0.166656ZM5.99975 10.6666C3.42142 10.6666 1.33309 8.57831 1.33309 5.99998C1.33309 3.42165 3.42142 1.33331 5.99975 1.33331C8.57809 1.33331 10.6664 3.42165 10.6664 5.99998C10.6664 8.57831 8.57809 10.6666 5.99975 10.6666ZM5.4165 3.08332H6.2915V6.14582L8.9165 7.70332L8.479 8.42082L5.4165 6.58332V3.08332Z" fill="#FFAA55"/>
</svg>
