<svg width="10" height="10" viewBox="0 0 10 10" fill="none" xmlns="http://www.w3.org/2000/svg">
<path fill-rule="evenodd" clip-rule="evenodd" d="M1.32719 0.502747H3.09783C3.37607 0.502747 3.60372 0.7304 3.60372 1.00864C3.60372 1.64101 3.7049 2.24809 3.89208 2.8147C3.94773 2.99176 3.90726 3.18906 3.76561 3.33071L2.65264 4.44368C3.38113 5.87537 4.55481 7.04399 5.9865 7.77754L7.09947 6.66457C7.20065 6.56845 7.32712 6.51786 7.45866 6.51786C7.50925 6.51786 7.5649 6.52292 7.61548 6.54316C8.18209 6.73034 8.79422 6.83152 9.42154 6.83152C9.69978 6.83152 9.92743 7.05917 9.92743 7.33741V9.10299C9.92743 9.38124 9.69978 9.60889 9.42154 9.60889C4.67116 9.60889 0.821289 5.75902 0.821289 1.00864C0.821289 0.7304 1.04894 0.502747 1.32719 0.502747ZM2.61207 1.51462C2.64243 1.96487 2.71831 2.405 2.83973 2.8249L2.23265 3.43197C2.02523 2.8249 1.8937 2.18241 1.84817 1.51462H2.61207ZM7.59968 7.59547C8.0297 7.71688 8.46983 7.79277 8.91502 7.82312V8.57691C8.24723 8.53138 7.60474 8.39984 6.99261 8.19748L7.59968 7.59547Z" fill="#ff7f00" fill-opacity="0.54"/>
</svg>
