<svg width="44" height="44" viewBox="0 0 44 44" fill="none" xmlns="http://www.w3.org/2000/svg">
<path d="M19.9375 30.9031V22.6875C19.9375 22.5052 19.8651 22.3303 19.7362 22.2014C19.6072 22.0724 19.4324 22 19.25 22C15.0511 22 14.4625 29.2044 14.4394 29.5109C14.4292 29.647 14.4597 29.783 14.5271 29.9017C14.5944 30.0203 14.6955 30.1163 14.8176 30.1773L15.8125 30.6749V30.9035L15.2797 36.2323C15.2511 36.519 15.2828 36.8086 15.3729 37.0823C15.4629 37.356 15.6094 37.6078 15.8027 37.8214C15.9961 38.0351 16.232 38.2058 16.4954 38.3227C16.7588 38.4396 17.0438 38.5 17.3319 38.5H18.4182C18.7063 38.5 18.9913 38.4396 19.2546 38.3227C19.518 38.2058 19.754 38.0351 19.9473 37.8214C20.1407 37.6078 20.2871 37.356 20.3772 37.0823C20.4673 36.8086 20.499 36.519 20.4703 36.2323L19.9375 30.9031ZM15.8597 29.1612C15.9789 28.1971 16.1908 27.2469 16.4926 26.3236C17.021 24.7689 17.7152 23.8228 18.5625 23.5003V30.25H17.1875C17.1875 30.1223 17.152 29.9972 17.0849 29.8886C17.0177 29.78 16.9217 29.6922 16.8075 29.6351L15.8597 29.1612ZM18.9277 36.8988C18.8636 36.9704 18.785 37.0276 18.6972 37.0665C18.6093 37.1055 18.5143 37.1255 18.4182 37.125H17.3319C17.2358 37.125 17.1408 37.1049 17.053 37.0659C16.9651 37.0269 16.8864 36.97 16.822 36.8987C16.7575 36.8275 16.7087 36.7435 16.6787 36.6522C16.6487 36.5609 16.6382 36.4644 16.6478 36.3688L17.1222 31.625H18.6278L19.1023 36.3688C19.1124 36.4644 19.1021 36.5611 19.072 36.6525C19.042 36.7439 18.9929 36.8278 18.9279 36.8988H18.9277Z" fill="#C9AFA5"/>
<path d="M41.9375 0.6875H36.4375C36.2552 0.6875 36.0803 0.759933 35.9514 0.888864C35.8224 1.0178 35.75 1.19266 35.75 1.375V2.0625H21.3969C20.7754 2.06293 20.1638 2.21886 19.618 2.51608L12.8871 6.1875H4.8125C3.65595 6.1875 2.75 7.39544 2.75 8.9375C2.75 10.3768 3.53934 11.5242 4.58485 11.6713L1.48526 22.1642C1.48251 22.1736 1.47993 22.183 1.47752 22.1924C1.40947 22.4651 1.37504 22.745 1.375 23.026V42.625C1.375 42.8073 1.44743 42.9822 1.57636 43.1111C1.7053 43.2401 1.88016 43.3125 2.0625 43.3125H33C33.1823 43.3125 33.3572 43.2401 33.4861 43.1111C33.6151 42.9822 33.6875 42.8073 33.6875 42.625V23.0835C33.6876 22.7552 33.6405 22.4285 33.5478 22.1135L30.6833 12.3744C31.6161 12.3676 32.5123 12.0104 33.1942 11.3739C33.8761 10.7373 34.2939 9.86767 34.3648 8.9375H35.75V10.3125C35.75 10.4948 35.8224 10.6697 35.9514 10.7986C36.0803 10.9276 36.2552 11 36.4375 11H41.9375C42.1198 11 42.2947 10.9276 42.4236 10.7986C42.5526 10.6697 42.625 10.4948 42.625 10.3125V1.375C42.625 1.19266 42.5526 1.0178 42.4236 0.888864C42.2947 0.759933 42.1198 0.6875 41.9375 0.6875ZM4.125 8.9375C4.125 8.09815 4.53217 7.5625 4.8125 7.5625H24.4653L21.7153 10.3125H4.8125C4.53217 10.3125 4.125 9.77685 4.125 8.9375ZM25.54 22.1925C25.472 22.4651 25.4375 22.7451 25.4375 23.0261V41.9375H2.75V23.026C2.75007 22.8619 2.76965 22.6984 2.80835 22.5389L6.01373 11.6875H20.4714C20.1125 12.2939 19.9763 13.0064 20.0861 13.7024C20.196 14.3984 20.545 15.0343 21.0732 15.5007C21.6014 15.9671 22.2757 16.2347 22.9799 16.2575C23.6842 16.2803 24.3743 16.0569 24.9316 15.6257L28.2391 13.053L25.5478 22.1643C25.545 22.1737 25.5424 22.1831 25.54 22.1925ZM29.5625 40.1598L31.3402 41.9375H27.7848L29.5625 40.1598ZM32.2287 22.5018C32.2843 22.6907 32.3125 22.8866 32.3125 23.0835V40.9652L30.25 38.9027V24.0625C30.25 23.8802 30.1776 23.7053 30.0486 23.5764C29.9197 23.4474 29.7448 23.375 29.5625 23.375C29.3802 23.375 29.2053 23.4474 29.0764 23.5764C28.9474 23.7053 28.875 23.8802 28.875 24.0625V38.9028L26.8125 40.9653V23.026C26.8126 22.8619 26.8322 22.6984 26.8709 22.5389L29.5607 13.4316L32.2287 22.5018ZM35.75 7.5625H34.0977C33.8067 7.56284 33.5277 7.6786 33.3219 7.88438C33.1161 8.09016 33.0003 8.36916 33 8.66018C32.9993 9.28052 32.7526 9.87525 32.3139 10.3139C31.8753 10.7526 31.2805 10.9993 30.6602 11H28.9701C28.7557 11.0004 28.5474 11.0719 28.3779 11.2032L24.0872 14.5406C23.7554 14.799 23.3375 14.9211 22.9188 14.882C22.5001 14.843 22.112 14.6457 21.8336 14.3304C21.5553 14.0151 21.4077 13.6056 21.4208 13.1852C21.434 12.7649 21.6069 12.3654 21.9044 12.0681L26.6111 7.36141C26.7073 7.26528 26.7729 7.14276 26.7994 7.00936C26.826 6.87596 26.8124 6.73767 26.7604 6.61199C26.7084 6.48631 26.6202 6.3789 26.5071 6.30334C26.394 6.22777 26.261 6.18746 26.125 6.1875H15.7587L20.2765 3.72316C20.6203 3.53596 21.0055 3.43776 21.3969 3.4375H35.75V7.5625ZM41.25 9.625H37.125V2.0625H41.25V9.625Z" fill="#C9AFA5"/>
<path d="M13.75 22.6875C13.75 22.5052 13.6776 22.3303 13.5486 22.2014C13.4197 22.0724 13.2448 22 13.0625 22C12.8802 22 12.7053 22.0724 12.5764 22.2014C12.4474 22.3303 12.375 22.5052 12.375 22.6875V24.75H11V22.6875C11 22.5052 10.9276 22.3303 10.7986 22.2014C10.6697 22.0724 10.4948 22 10.3125 22C10.1302 22 9.9553 22.0724 9.82636 22.2014C9.69743 22.3303 9.625 22.5052 9.625 22.6875V24.75H8.25V22.6875C8.25 22.5052 8.17757 22.3303 8.04864 22.2014C7.9197 22.0724 7.74484 22 7.5625 22C7.38016 22 7.2053 22.0724 7.07636 22.2014C6.94743 22.3303 6.875 22.5052 6.875 22.6875V25.4375H6.87629C6.87581 25.5441 6.90024 25.6494 6.94762 25.745L8.23831 28.3265L7.66949 36.2905C7.64931 36.5731 7.68754 36.8567 7.78178 37.1238C7.87603 37.3909 8.02427 37.6357 8.21728 37.843C8.41029 38.0503 8.64392 38.2156 8.90362 38.3286C9.16332 38.4417 9.44352 38.5 9.72675 38.5H10.8983C11.1815 38.5 11.4617 38.4417 11.7214 38.3286C11.9811 38.2156 12.2147 38.0503 12.4077 37.843C12.6007 37.6357 12.749 37.3909 12.8432 37.1238C12.9375 36.8567 12.9757 36.5731 12.9555 36.2905L12.3867 28.3265L13.6774 25.745C13.7248 25.6494 13.7492 25.5441 13.7487 25.4375H13.75V22.6875ZM11.9501 26.125L11.2626 27.5H9.36238L8.67488 26.125H11.9501ZM11.4015 36.9059C11.3374 36.9754 11.2596 37.0307 11.1729 37.0685C11.0863 37.1062 10.9927 37.1254 10.8983 37.125H9.72675C9.63234 37.125 9.53895 37.1056 9.45239 37.0679C9.36582 37.0302 9.28795 36.9751 9.22361 36.906C9.15927 36.8369 9.10985 36.7554 9.07843 36.6663C9.04701 36.5773 9.03425 36.4828 9.04097 36.3886L9.57765 28.875H11.0472L11.5839 36.3886C11.591 36.4828 11.5785 36.5774 11.5471 36.6665C11.5157 36.7555 11.4661 36.8371 11.4015 36.9059V36.9059Z" fill="#C9AFA5"/>
</svg>
