<svg width="75" height="14" viewBox="0 0 75 14" fill="none" xmlns="http://www.w3.org/2000/svg">
<path d="M6.90244 11.1832L10.5776 13.7596L9.60232 8.90383L12.8493 5.63668L8.57351 5.21533L6.90244 0.635803L5.23137 5.21533L0.955566 5.63668L4.20256 8.90383L3.22727 13.7596L6.90244 11.1832Z" fill="#FF7F00"/>
<path d="M22.4391 11.1832L26.1142 13.7596L25.1389 8.90383L28.3859 5.63668L24.1101 5.21533L22.4391 0.635803L20.768 5.21533L16.4922 5.63668L19.7392 8.90383L18.7639 13.7596L22.4391 11.1832Z" fill="#FF7F00"/>
<path d="M37.9752 11.1832L41.6504 13.7596L40.6751 8.90383L43.9221 5.63668L39.6463 5.21533L37.9752 0.635803L36.3041 5.21533L32.0283 5.63668L35.2753 8.90383L34.3 13.7596L37.9752 11.1832Z" fill="#FF7F00"/>
<path d="M53.5118 11.1832L57.187 13.7596L56.2117 8.90383L59.4587 5.63668L55.1829 5.21533L53.5118 0.635803L51.8407 5.21533L47.5649 5.63668L50.8119 8.90383L49.8366 13.7596L53.5118 11.1832Z" fill="#FF7F00"/>
<path d="M69.0484 11.1832L72.7236 13.7596L71.7483 8.90383L74.9953 5.63668L70.7195 5.21533L69.0484 0.635803L67.3774 5.21533L63.1016 5.63668L66.3486 8.90383L65.3733 13.7596L69.0484 11.1832Z" fill="#FF7F00"/>
</svg>
