<svg width="46" height="46" viewBox="0 0 46 46" fill="none" xmlns="http://www.w3.org/2000/svg">
<g clip-path="url(#clip0)">
<path d="M10.9726 11.2719C10.8405 11.2719 10.7071 11.2332 10.5901 11.1525C10.284 10.9409 10.2073 10.5212 10.4188 10.215L10.8679 9.56518C11.0794 9.25909 11.4991 9.18245 11.8052 9.39385C12.1114 9.60543 12.188 10.0251 11.9765 10.3313L11.5275 10.9811C11.3968 11.1704 11.1864 11.2719 10.9726 11.2719Z" fill="#8F6363"/>
<path d="M33.5207 8.74878H33.5154C33.1432 8.74878 32.8442 9.05047 32.8442 9.42261C32.8442 9.79474 33.1486 10.0964 33.5207 10.0964C33.8928 10.0964 34.1945 9.79474 34.1945 9.42261C34.1945 9.05047 33.8928 8.74878 33.5207 8.74878Z" fill="#8F6363"/>
<path d="M42.7634 19.1618H42.704C43.1578 17.6541 43.2314 16.0704 42.9026 14.613C42.7677 14.0148 42.5667 13.4441 42.3057 12.9045C42.2915 12.868 42.2745 12.8327 42.2543 12.7992C41.6447 11.5861 40.7222 10.5371 39.5248 9.71094L37.5702 8.36113C37.5701 8.36104 37.57 8.36104 37.57 8.36104L37.5699 8.36095L31.8463 4.41214C31.4655 4.14907 31.0717 3.87694 30.6011 3.96337C30.131 4.04953 29.8591 4.44322 29.5957 4.82443C29.3561 5.17195 29.1532 5.55315 28.9863 5.95556L28.0297 5.29737C27.0029 4.58697 26.7433 3.17256 27.4503 2.14574C28.0442 1.28728 29.1623 1.12197 30.7738 1.65465L40.7559 4.95111C41.1091 5.06773 41.4903 4.876 41.607 4.52264C41.7237 4.16929 41.5319 3.78826 41.1785 3.67155L31.1966 0.374918C28.398 -0.550023 27.0121 0.410317 26.3412 1.38009C25.213 3.01884 25.6265 5.27311 27.2644 6.4064L28.581 7.31238C28.2178 9.20099 28.597 11.2819 29.8885 12.6851C29.5027 13.2024 29.2506 13.9153 29.1607 14.7671C29.1217 15.1371 29.39 15.4688 29.7601 15.5078C29.7842 15.5104 29.808 15.5116 29.8316 15.5116C30.1719 15.5116 30.4644 15.2545 30.5008 14.9085C30.5604 14.344 30.7131 13.8681 30.9274 13.5497C31.3819 13.8654 31.7459 14.1113 32.0719 14.3316C32.2116 14.4259 32.3453 14.5164 32.478 14.6067C31.9584 15.1967 31.7119 15.9764 31.8055 16.8046C31.8444 17.1487 32.1359 17.4029 32.4742 17.4029C32.4994 17.4029 32.5249 17.4015 32.5506 17.3986C32.9204 17.3568 33.1864 17.0232 33.1446 16.6534C33.0742 16.0302 33.336 15.6298 33.5907 15.3932C34.4756 16.0611 35.0736 16.7502 35.3705 17.4309C35.3838 17.4769 35.4018 17.521 35.4243 17.5627C35.6312 18.1075 35.6441 18.6456 35.4567 19.1617H28.4632C28.1183 14.7109 24.3865 11.1949 19.8489 11.1949C15.3125 11.1949 11.5797 14.711 11.2323 19.1617H3.23668C1.91984 19.1617 0.848633 20.2342 0.848633 21.5525C0.848633 22.8454 1.88139 23.9009 3.16516 23.9389C3.46506 31.5317 8.04242 38.2606 15.0094 41.3226V44.7954C15.0094 45.4597 15.5499 46.0002 16.2142 46.0002H29.786C30.4503 46.0002 30.9907 45.4598 30.9907 44.7954V41.3226C37.9577 38.2606 42.5351 31.5317 42.835 23.9389C44.1187 23.9009 45.1515 22.8454 45.1515 21.5525C45.1515 20.2342 44.0803 19.1618 42.7634 19.1618ZM41.2859 19.1618H36.8557C36.9403 18.7693 36.955 18.3703 36.9009 17.9704C38.0124 17.9351 39.1263 17.5568 40.0653 16.878C40.7107 16.4115 41.2454 15.8215 41.6411 15.1598C41.897 16.5583 41.7072 17.9714 41.2859 19.1618ZM31.4525 12.2731C31.3977 12.2353 31.3449 12.1954 31.293 12.1548C31.2825 12.146 31.2714 12.138 31.2605 12.1299C29.4083 10.6474 29.4159 7.45928 30.7048 5.58981C30.7344 5.54686 30.7986 5.45396 30.8594 5.37275C30.9449 5.42719 31.0376 5.49125 31.0806 5.52099L36.8046 9.47007C37.0328 9.62757 37.1243 9.82486 37.1013 10.1098C37.0446 10.8124 36.242 11.8923 34.9967 12.4832C34.2796 12.8235 32.8656 13.2486 31.4525 12.2731ZM34.2449 14.2004C34.2207 14.1828 34.1978 14.1665 34.1741 14.1493C34.6432 14.0687 35.1132 13.9196 35.5745 13.7007C37.0192 13.0151 38.1271 11.7649 38.3915 10.5658L38.7595 10.8199C39.7818 11.5252 40.4977 12.3576 40.9741 13.2456C40.538 15.2727 38.5228 16.764 36.4569 16.6158C36.0151 15.7705 35.272 14.9479 34.2449 14.2004ZM19.8488 12.5425C23.6428 12.5425 26.768 15.4552 27.1093 19.1618H25.6625C25.3271 16.2503 22.8485 13.9818 19.8488 13.9818C18.2459 13.9818 16.7919 14.6293 15.7332 15.6758C15.725 15.6832 15.7164 15.6902 15.7084 15.6982C15.7005 15.7061 15.6937 15.7146 15.6862 15.7227C14.7888 16.6302 14.1862 17.8286 14.0324 19.1619H12.5859C12.9297 15.4552 16.0559 12.5425 19.8488 12.5425ZM23.4751 17.1644C23.9009 17.7409 24.1922 18.4223 24.3037 19.1618H21.4763L23.4751 17.1644ZM20.5226 18.2097V15.3799C21.2634 15.4915 21.9455 15.7842 22.5226 16.2111L20.5226 18.2097ZM17.1743 16.2104C17.7517 15.7837 18.434 15.4912 19.175 15.3798V18.2097L17.1743 16.2104ZM18.2213 19.1618H15.3912C15.5029 18.4217 15.7947 17.74 16.2213 17.1631L18.2213 19.1618ZM30.1821 40.2042H24.0962C23.7241 40.2042 23.4224 40.5059 23.4224 40.878C23.4224 41.2501 23.7241 41.5518 24.0962 41.5518H29.6431V44.6526H16.357V41.5518H20.8683C21.2405 41.5518 21.5422 41.2501 21.5422 40.878C21.5422 40.5059 21.2405 40.2042 20.8683 40.2042H15.818C11.0248 38.1854 7.4101 34.3191 5.66192 29.628H40.3382C38.5899 34.3191 34.9752 38.1854 30.1821 40.2042ZM42.7634 22.5931H24.6325C24.2604 22.5931 23.9587 22.8948 23.9587 23.2669C23.9587 23.6391 24.2604 23.9408 24.6325 23.9408H41.4866C41.4232 25.4315 41.1829 26.8862 40.7822 28.2804H5.21791C4.81721 26.8862 4.57688 25.4315 4.51354 23.9408H21.3439C21.716 23.9408 22.0177 23.6391 22.0177 23.2669C22.0177 22.8948 21.716 22.5931 21.3439 22.5931H3.23668C2.66294 22.5931 2.1962 22.1263 2.1962 21.5525C2.1962 20.9773 2.66294 20.5093 3.23668 20.5093H11.8791H11.8795H42.7633C43.3371 20.5093 43.8038 20.9773 43.8038 21.5525C43.8039 22.1264 43.3372 22.5931 42.7634 22.5931Z" fill="#8F6363"/>
<path d="M10.5906 11.1525C10.7075 11.2332 10.8409 11.2719 10.9731 11.2719C11.1869 11.2719 11.3972 11.1704 11.528 10.9811L11.977 10.3313C12.1885 10.0251 12.1118 9.60543 11.8057 9.39385C11.4996 9.18245 11.0798 9.25909 10.8683 9.56518L10.4193 10.215C10.2078 10.5212 10.2845 10.9409 10.5906 11.1525Z" fill="#8F6363"/>
<path d="M15.3436 7.96904C15.3977 8.79371 15.7492 9.13548 16.5516 9.13548C16.5727 9.13548 16.5943 9.1353 16.6162 9.13476C18.4219 9.09801 20.066 8.37154 21.2454 7.08929C22.4232 5.80892 23.0093 4.10935 22.8958 2.30178C22.8402 1.45339 22.4702 1.11513 21.6222 1.13346C19.8159 1.17326 18.1722 1.90063 16.9939 3.18153C15.8162 4.4619 15.23 6.16147 15.3434 7.96715C15.3435 7.96778 15.3436 7.96841 15.3436 7.96904ZM17.9858 4.09381C18.8929 3.10768 20.1577 2.53807 21.5561 2.48363C21.6204 3.8833 21.1597 5.19179 20.2536 6.17701C19.3458 7.16386 18.0811 7.73257 16.6832 7.78468C16.6195 6.3859 17.0801 5.07849 17.9858 4.09381Z" fill="#8F6363"/>
<path d="M5.92065 16.2429C6.17913 16.4345 6.4182 16.5307 6.64407 16.5307C6.93651 16.5307 7.20658 16.3694 7.46731 16.0452C8.38964 14.9051 8.79897 13.507 8.62018 12.1096C8.44391 10.708 7.69785 9.45544 6.51973 8.58297C5.92164 8.1395 5.4451 8.19978 4.97405 8.77964C4.05369 9.9167 3.64392 11.3148 3.82037 12.7177C3.99979 14.1208 4.74576 15.3728 5.92065 16.2429ZM5.88911 9.79972C6.66941 10.4415 7.16184 11.314 7.28331 12.2792C7.40639 13.2415 7.14702 14.209 6.55135 15.0262C5.77312 14.3858 5.28069 13.5131 5.15724 12.5481C5.03578 11.5826 5.29524 10.6144 5.88911 9.79972Z" fill="#8F6363"/>
<path d="M23.8652 10.111C23.9961 10.2993 24.2058 10.4003 24.4191 10.4003C24.5517 10.4003 24.6858 10.3612 24.8031 10.2798C25.1086 10.0674 25.1842 9.64753 24.9717 9.34197L24.52 8.69213C24.3077 8.38666 23.8879 8.31092 23.5822 8.52349C23.2767 8.73588 23.2012 9.15572 23.4136 9.46128L23.8652 10.111Z" fill="#8F6363"/>
</g>
<defs>
<clipPath id="clip0">
<rect width="46" height="46" fill="white"/>
</clipPath>
</defs>
</svg>
