<svg width="42" height="42" viewBox="0 0 42 42" fill="none" xmlns="http://www.w3.org/2000/svg">
<g clip-path="url(#clip0)">
<path d="M31.5909 11.2237L30.3536 20.1816C30.3072 20.5184 30.5424 20.8289 30.879 20.8754C31.2185 20.9221 31.5267 20.6842 31.5728 20.3501C33.446 6.78803 33.2607 8.11876 33.275 8.02637C33.5361 6.13629 32.7263 4.28355 31.1619 3.19127C25.9685 -0.434793 19.183 -1.0149 13.4538 1.67732C13.1462 1.82189 13.014 2.18842 13.1585 2.49604C13.303 2.80365 13.6697 2.93584 13.9772 2.79134C19.309 0.285792 25.6239 0.825779 30.4573 4.20043C31.64 5.02612 32.2524 6.42627 32.0562 7.85496C32.056 7.85627 32.0559 7.85759 32.0556 7.8589C31.9317 8.75483 31.5111 9.56789 30.8312 10.2558V10.2378C30.8312 9.5308 30.4358 8.89563 29.8386 8.56915C29.7823 8.17013 29.6837 7.73172 29.4317 7.34484C28.9252 6.56674 27.9839 6.27759 27.4786 5.82827C26.9865 5.3906 26.5981 4.49188 25.762 4.06151C24.9468 3.64206 23.9969 3.84326 23.3321 3.68514C22.7012 3.53507 21.9492 2.92131 21.0004 2.92131C20.0545 2.92131 19.2961 3.53589 18.6688 3.68522C18.011 3.84153 17.051 3.64354 16.239 4.0616C15.4027 4.49188 15.0141 5.39093 14.5222 5.82835C14.0172 6.27759 13.0763 6.566 12.5691 7.34492C12.3664 7.65623 12.2628 7.99872 12.1995 8.34063C11.6139 8.62051 11.2281 9.21285 11.2281 9.88092V10.3159C10.5126 9.61523 10.0708 8.78068 9.94341 7.85824C9.74591 6.42848 10.3584 5.02703 11.5419 4.20068C11.8205 4.00613 11.8887 3.62245 11.6941 3.3438C11.4996 3.06515 11.116 2.99697 10.8372 3.19151C9.2728 4.28379 8.46302 6.13654 8.72411 8.02662C9.6751 14.9115 10.8737 23.5901 11.8527 30.6775C11.8991 31.0143 12.2101 31.2492 12.5465 31.2029C12.8833 31.1564 13.1184 30.8457 13.0719 30.5091L12.7746 28.3575C18.1914 30.5206 24.0632 30.4101 29.2259 28.3463L27.765 38.9228C27.7339 39.1483 27.5851 39.345 27.371 39.4387C23.3216 41.2116 18.6756 41.214 14.6243 39.4455C14.4153 39.3543 14.2663 39.1575 14.2352 38.9317L13.4696 33.3893C13.4232 33.0526 13.1119 32.8174 12.7758 32.864C12.439 32.9105 12.2039 33.2211 12.2504 33.5578L13.0159 39.1C13.1053 39.7474 13.5329 40.312 14.1319 40.5735C18.4397 42.4542 23.4455 42.5011 27.8702 40.5638C28.4681 40.3021 28.895 39.7378 28.9843 39.0913C29.1312 38.0277 30.9683 24.7271 31.1646 23.3057C31.2111 22.9689 30.9759 22.6584 30.6392 22.6118C30.3025 22.5656 29.9918 22.8006 29.9454 23.1372L29.4217 26.9289C29.4089 26.935 29.396 26.9409 29.3828 26.9467C28.0955 27.5104 26.7623 27.9379 25.4055 28.2296C25.1517 25.5671 24.3562 22.9395 23.0884 20.5886C22.6944 19.8581 22.2514 19.1471 21.7685 18.4694C23.7201 15.991 26.278 14.0297 29.1922 12.782C30.077 12.4028 30.9048 11.8877 31.5909 11.2237ZM15.3402 6.74766C15.9394 6.21465 16.295 5.41661 16.8022 5.1556C17.2863 4.90641 18.1567 5.07174 18.9535 4.88229C19.7321 4.69718 20.416 4.15185 21.0004 4.15185C21.5839 4.15185 22.2697 4.69734 23.0473 4.88229C23.8437 5.07174 24.7139 4.90608 25.1987 5.15568C25.7053 5.41645 26.0623 6.21555 26.6606 6.74783C27.2685 7.28839 28.0996 7.55465 28.4002 8.01628C28.4382 8.07462 28.4699 8.13977 28.4969 8.20992L28.2729 8.16422C28.2684 8.16323 28.2641 8.16233 28.2596 8.16151L26.4568 7.79359C25.5616 7.6111 24.7224 8.29452 24.7224 9.20973V10.263C24.4939 10.2227 24.2594 10.2206 24.0284 10.2576V7.96409C24.0284 7.2975 23.656 6.70254 23.0564 6.41125C22.4566 6.11988 21.7589 6.19512 21.2349 6.60719L18.9955 8.36845C18.2945 8.91976 17.8926 9.7475 17.8926 10.6393V10.8268L17.5553 10.6907C17.3669 10.6146 17.1666 10.5853 16.9704 10.6012C16.8307 9.96683 16.389 9.43398 15.7673 9.18306L13.5737 8.2978C13.544 8.28582 13.5141 8.27474 13.4841 8.26457C13.5152 8.17193 13.5531 8.08906 13.6005 8.01619C13.9011 7.55465 14.7326 7.28806 15.3402 6.74766ZM17.0423 11.8376C17.0671 11.8209 17.0866 11.8288 17.0949 11.8321C17.2243 11.8844 16.8472 11.7322 18.5935 12.4368C19.6577 12.8663 20.3454 13.8853 20.3454 15.0329V16.6957C19.3488 15.5891 18.2318 14.5966 17.0176 13.7367V11.8843C17.0176 11.8753 17.0176 11.8543 17.0423 11.8376ZM21.3471 9.41732C21.0071 9.41732 20.7317 9.69285 20.7317 10.0327V11.8853C20.6415 12.0119 20.5657 12.1486 20.5057 12.2928C20.1269 11.8846 19.6596 11.552 19.1236 11.3242V10.6393C19.1236 10.1274 19.3543 9.65232 19.7567 9.33584L21.9961 7.57459C22.2162 7.40146 22.4351 7.4776 22.5189 7.5183C22.6028 7.55908 22.7979 7.68405 22.7979 7.96409V10.6975L21.9624 11.0347V10.0327C21.9624 9.69277 21.6869 9.41732 21.3471 9.41732ZM12.459 9.88059C12.459 9.65215 12.6057 9.5285 12.6688 9.486C12.7319 9.44341 12.9013 9.35357 13.1132 9.43915L15.3068 10.3244C15.5984 10.4421 15.7868 10.7211 15.7868 11.0356V12.9306C15.425 12.712 15.0561 12.5045 14.6805 12.3087V11.2112C14.6805 10.8713 14.4051 10.5958 14.0651 10.5958C13.7252 10.5958 13.4498 10.8713 13.4498 11.2112V11.7189C13.3972 11.6958 13.3445 11.6729 13.2916 11.6504C12.9965 11.524 12.7187 11.3856 12.4591 11.236V9.88059H12.459ZM24.1903 28.4531C20.2647 29.0576 16.2383 28.5387 12.6114 26.9552C12.6009 26.9507 12.5858 26.9436 12.5791 26.9404L10.4083 11.2238C11.0994 11.8926 11.9301 12.4062 12.807 12.7816C16.7287 14.4608 19.9781 17.4144 22.005 21.1724C23.2125 23.4111 23.9634 25.917 24.1903 28.4531ZM21.5761 16.7828V13.1006C21.5761 12.8867 21.6535 12.6874 21.7872 12.5338C21.7969 12.5238 21.8062 12.5137 21.8152 12.5031C21.8981 12.4167 22 12.3468 22.1165 12.2997L23.6328 11.6878C23.6402 11.685 23.6475 11.682 23.6547 11.6789L24.0362 11.525C24.3494 11.3987 24.681 11.4644 24.9238 11.672C24.9291 11.6768 24.9346 11.6816 24.9401 11.6862C25.1212 11.8489 25.2229 12.0761 25.2229 12.3258V13.5684C24.7718 13.8782 24.3337 14.206 23.9096 14.5509V14.0571C23.9096 13.7172 23.6342 13.4417 23.2942 13.4417C22.9543 13.4417 22.6788 13.7172 22.6788 14.0571V15.6383C22.2967 16.0048 21.9287 16.3866 21.5761 16.7828ZM28.7077 11.6502C27.9313 11.9826 27.1786 12.3627 26.4538 12.787V12.3258C26.4538 11.8209 26.2728 11.3412 25.9534 10.967V9.20965C25.9534 9.12111 26.0028 9.06761 26.0322 9.04357C26.0616 9.01953 26.1236 8.98162 26.2109 8.99951L27.5273 9.26815V10.5324C27.5273 10.8723 27.8028 11.1478 28.1427 11.1478C28.4827 11.1478 28.7581 10.8723 28.7581 10.5324V9.51931L29.065 9.58192C29.3741 9.64493 29.6004 9.91989 29.6004 10.2377V11.2009C29.3236 11.3639 29.0258 11.514 28.7077 11.6502Z" fill="#8F6363"/>
<path d="M26.859 17.8894C27.1989 17.8894 27.4744 17.6138 27.4744 17.274C27.4744 16.9341 27.1989 16.6586 26.859 16.6586C25.7717 16.6586 24.8872 17.5432 24.8872 18.6305C24.8872 19.7177 25.7717 20.6023 26.859 20.6023C27.7324 20.6023 28.5114 20.0168 28.7535 19.1785C28.8478 18.852 28.6596 18.5108 28.3331 18.4165C28.0067 18.3223 27.6654 18.5104 27.5711 18.8369C27.4802 19.1517 27.1874 19.3716 26.859 19.3716C26.4505 19.3716 26.118 19.0391 26.118 18.6305C26.118 18.2218 26.4505 17.8894 26.859 17.8894Z" fill="#8F6363"/>
<path d="M16.992 19.2219C16.992 18.6958 16.7872 18.2012 16.4151 17.8292C16.1749 17.5889 15.7852 17.589 15.5449 17.8292C15.3046 18.0695 15.3046 18.4592 15.545 18.6995C15.8336 18.9882 15.8337 19.4555 15.5449 19.7442C15.4054 19.8838 15.2199 19.9606 15.0226 19.9606C14.8253 19.9606 14.6398 19.8837 14.5002 19.7442C14.2599 19.5039 13.8703 19.504 13.6299 19.7442C13.3896 19.9845 13.3896 20.3742 13.63 20.6145C14.002 20.9865 14.4967 21.1914 15.0227 21.1914C15.5487 21.1914 16.0434 20.9865 16.4153 20.6145C16.7872 20.2425 16.992 19.7479 16.992 19.2219Z" fill="#8F6363"/>
<path d="M19.9633 24.8519C19.6733 24.6747 19.2947 24.7662 19.1173 25.0563C18.9579 25.3172 18.6806 25.473 18.3754 25.473C17.8967 25.473 17.5072 25.0835 17.5072 24.6047C17.5072 24.126 17.8967 23.7365 18.3754 23.7365C18.7154 23.7365 18.9908 23.4609 18.9908 23.1211C18.9908 22.7812 18.7154 22.5057 18.3754 22.5057C17.218 22.5057 16.2764 23.4473 16.2764 24.6047C16.2764 25.7622 17.218 26.7038 18.3754 26.7038C19.1128 26.7038 19.7828 26.3278 20.1676 25.6979C20.3449 25.4078 20.2533 25.0291 19.9633 24.8519Z" fill="#8F6363"/>
</g>
<defs>
<clipPath id="clip0">
<rect width="42" height="42" fill="white"/>
</clipPath>
</defs>
</svg>
